<svg width="53" height="40" viewBox="0 0 53 40" fill="none" xmlns="http://www.w3.org/2000/svg">
<g clip-path="url(#clip0_3592_307)">
<path fill-rule="evenodd" clip-rule="evenodd" d="M0.645996 0.971795H8.5122V22.5966C8.5122 26.019 10.0404 28.0575 11.2489 28.9314C9.96953 30.0963 6.05996 31.1157 3.14559 28.6399C1.42738 27.1807 0.645996 24.7811 0.645996 22.5238V0.971795ZM49.8066 18.9351V16.6626H52.2058V8.68985H49.5712C48.5598 3.90323 44.3995 0.316406 39.4241 0.316406C33.6924 0.316406 29.0462 5.07596 29.0462 10.9469V29.5655C30.6791 29.8007 32.6245 29.5363 34.2797 28.1304C35.9976 26.6708 36.779 24.2715 36.779 22.0142V21.3283H40.7076V13.3556H36.779V10.9469H36.7884C36.7884 9.45594 37.9684 8.24729 39.4241 8.24729C40.8796 8.24729 42.0642 9.45594 42.0642 10.9469V18.9351C42.0642 24.8061 46.7153 29.5655 52.4468 29.5655V21.6346C50.9913 21.6346 49.8066 20.4261 49.8066 18.9351ZM20.0145 8.68985V20.3907C20.0145 21.0548 19.4764 21.5933 18.8126 21.5933C18.1487 21.5933 17.6107 21.0548 17.6107 20.3907V8.68985H9.82716V22.4512C9.82716 24.9267 10.6468 28.0575 14.3765 29.0769C18.1103 30.0973 20.2762 27.9848 20.2762 27.9848C20.0789 29.3766 18.7993 30.3959 16.7379 30.6145C15.1784 30.7796 13.1838 30.2505 12.1889 29.8135V37.1043C14.724 37.87 17.4055 38.1175 20.0297 37.5959C24.792 36.6493 27.7977 32.572 27.7977 27.1475V8.68985H20.0145Z" fill="#FFFFFF"></path>
</g>
<defs>
<clipPath id="clip0_3592_307">
<rect width="52" height="39" fill="#FFFFFF" transform="translate(0.446777 0.166992)"></rect>
</clipPath>
</defs>
</svg>