<svg width="2rem" height="100%" viewBox="0 0 81 90" fill="none" xmlns="http://www.w3.org/2000/svg">
<g clip-path="url(#clip0_221_9)">
<path d="M65.68 16.68H40.37C33.467 16.668 26.803 19.2063 21.6572 23.8075C16.5115 28.4088 13.2468 34.7487 12.49 41.61C10.1365 37.3423 8.93517 32.5351 9.00429 27.662C9.0734 22.7889 10.4106 18.0177 12.8841 13.8185C15.3577 9.6192 18.8823 6.13659 23.1109 3.71357C27.3395 1.29055 32.1263 0.010684 37 0L80.73 0L65.68 16.68Z" fill="white"></path>
<path d="M15.05 72.7796H40.37C47.2692 72.7784 53.9261 70.2355 59.069 65.6368C64.212 61.038 67.4804 54.7057 68.25 47.8496C70.6219 52.1181 71.8362 56.9328 71.7724 61.8156C71.7086 66.6984 70.3689 71.4797 67.8863 75.6848C65.4036 79.8899 61.8644 83.3726 57.6199 85.7872C53.3754 88.2018 48.5732 89.4644 43.69 89.4496H0L15.05 72.7796Z" fill="white"></path>
<path d="M40.3698 67.2602C52.8128 67.2602 62.8998 57.1732 62.8998 44.7302C62.8998 32.2872 52.8128 22.2002 40.3698 22.2002C27.9269 22.2002 17.8398 32.2872 17.8398 44.7302C17.8398 57.1732 27.9269 67.2602 40.3698 67.2602Z" fill="white"></path>
</g>
<defs>
<clipPath id="clip0_221_9">
<rect width="80.73" height="89.45" fill="white"></rect>
</clipPath>
</defs>
</svg>