<svg width="107" height="45" viewBox="0 0 107 45" fill="none"  xmlns="http://www.w3.org/2000/svg">
<g clip-path="url(#clip0_3592_286)">
<path d="M90.3675 19.8853C88.6191 20.2887 84.0013 20.5128 84.0013 20.5128L83.4333 22.3361C83.4333 22.3361 85.7199 22.1418 87.3937 22.3063C87.3937 22.3063 87.9316 22.2614 87.9914 22.904C88.0212 23.5616 87.9466 24.249 87.9466 24.249C87.9466 24.249 87.9017 24.6525 87.3487 24.7572C86.7062 24.8618 82.3723 25.056 82.3723 25.056L81.6698 27.4173C81.6698 27.4173 81.4159 27.9553 81.9986 27.8058C82.5366 27.6564 87.0798 26.7896 87.6776 26.9092C88.3052 27.0587 89.0225 27.9253 88.8134 28.7025C88.5743 29.6439 84.0311 32.5433 81.2812 32.349C81.2812 32.349 79.8317 32.4386 78.6212 30.4809C77.4555 28.6128 79.0247 25.1009 79.0247 25.1009C79.0247 25.1009 78.3223 23.457 78.8453 22.8591C78.8453 22.8591 79.1442 22.6052 80.0409 22.5304L81.1618 20.2289C81.1618 20.2289 79.8914 20.3037 79.1442 19.3771C78.4569 18.4805 78.3971 18.0919 78.9351 17.8528C79.503 17.5538 84.7634 16.6124 88.38 16.732C88.38 16.732 89.6502 16.5825 90.7711 18.7794C90.7711 18.7794 91.2792 19.676 90.3825 19.8853M76.7381 28.7324C76.2899 29.8234 75.0495 30.9741 73.555 30.2716C72.0307 29.5543 69.6245 24.6526 69.6245 24.6526C69.6245 24.6526 68.7279 22.8293 68.5486 22.8891C68.5486 22.8891 68.3543 22.5304 68.2497 24.5329C68.1002 26.5206 68.2795 30.3912 67.4577 31.004C66.7104 31.6017 65.8137 31.3477 65.3057 30.6453C64.8871 29.9429 64.7078 28.2542 64.9469 25.3101C65.216 22.3661 65.8885 19.2276 66.7403 18.2563C67.637 17.2699 68.3543 17.9872 68.6233 18.2563C68.6233 18.2563 69.774 19.3024 71.7169 22.3959L72.0457 22.9638C72.0457 22.9638 73.8091 25.9079 73.9884 25.8929C73.9884 25.8929 74.1379 26.0424 74.2573 25.9228C74.4368 25.878 74.377 24.9215 74.377 24.9215C74.377 24.9215 74.0482 21.7384 72.4043 16.3583C72.4043 16.3583 72.1651 15.6709 72.3296 15.0134C72.479 14.4156 73.1216 14.7145 73.1216 14.7145C73.1216 14.7145 75.6024 15.91 76.8129 19.945C78.0085 23.98 77.2015 27.6414 76.7531 28.7324M64.5733 18.3758C64.3342 18.7942 64.2296 19.3771 63.1985 19.5415C63.1985 19.5415 53.1856 20.2439 52.6925 20.9462C52.6925 20.9462 52.3636 21.3648 52.9017 21.4693C53.4695 21.5889 55.7412 21.8878 56.8171 21.9475C57.9828 21.9475 61.8983 21.9775 63.333 23.7409C63.333 23.7409 64.1549 24.5777 64.125 26.4758C64.0951 28.4185 63.7514 29.106 62.9892 29.8084C62.1972 30.4659 55.4124 33.5146 51.0336 28.8519C51.0336 28.8519 49.031 26.6103 51.7361 24.9067C51.7361 24.9067 53.6788 23.7111 58.6553 25.1009C58.6553 25.1009 60.1498 25.6388 60.09 26.1919C60.0004 26.7896 58.8496 27.3874 57.1758 27.3575C55.5619 27.3126 54.3663 26.5355 54.6054 26.6701C54.8295 26.7447 52.8568 25.7136 52.2441 26.416C51.6463 27.0735 51.7957 27.4621 52.3936 27.8657C53.8881 28.7325 59.7613 28.4185 61.5097 26.4608C61.5097 26.4608 62.2121 25.6688 61.1511 25.0261C60.105 24.4284 57.0562 24.0547 55.8756 24.0099C54.7547 23.9502 50.5554 24.0099 49.9277 22.919C49.9277 22.919 49.33 22.1418 49.9875 20.0198C50.675 17.7781 55.5619 16.9113 57.6839 16.732C57.6839 16.732 63.5123 16.4929 64.6032 17.6885C64.6032 17.6885 64.7527 17.9574 64.5733 18.361M48.0448 31.512C47.3424 32.0351 45.8479 31.8109 45.4145 31.2132C44.9961 30.6902 44.8466 28.6278 44.9213 25.3849C45.0259 22.0671 45.0708 18.0022 45.8179 17.3447C46.5652 16.702 47.0135 17.2699 47.3124 17.7033C47.6113 18.1517 47.9999 18.6449 48.0597 19.676C48.1494 20.7221 48.4033 26.1022 48.4033 26.1022C48.4033 26.1022 48.7321 31.0039 48.0597 31.512M49.5392 14.027C47.4769 14.7295 46.072 14.5052 44.8765 13.9822C44.3534 14.9236 44.0396 15.2075 43.6511 15.2674C43.0532 15.3272 42.5302 14.3707 42.4555 14.0718C42.3359 13.8477 42.0519 13.4442 42.3957 12.5325C41.23 11.4864 41.1403 10.0817 41.3496 9.14015C41.6185 8.03425 43.5913 3.87967 49.5691 3.3865C49.5691 3.3865 52.4982 3.17728 53.0063 4.73151H53.0959C53.0959 4.73151 55.9355 4.73151 55.8756 7.27207C55.8756 9.81265 52.7373 12.9809 49.5392 14.0718M52.1993 6.79385C50.3162 7.09275 47.4171 9.60343 46.0272 11.6807C48.1642 12.0693 51.9004 11.9198 53.5742 8.54237C53.5742 8.54237 54.3663 6.42025 52.1993 6.79385ZM43.935 8.43776C43.3372 9.40914 43.3073 9.99197 43.5913 10.3805C44.2936 9.33442 45.534 7.69053 47.4021 6.4053C45.9674 6.55475 44.757 7.15252 43.935 8.43776ZM94.851 31.4075C93.476 34.7849 92.3104 38.2072 91.6379 43.3332C91.6379 43.3332 91.4884 44.3344 90.6665 44.0057C89.8445 43.7067 88.4995 42.3617 88.2007 40.4638C87.9017 37.983 89.0077 33.7986 91.2643 28.9864C90.6066 27.9403 90.1434 26.3861 90.517 24.2042C90.517 24.2042 91.1148 20.1692 95.1498 16.5227C95.1498 16.5227 95.628 16.1192 95.8971 16.2538C96.2259 16.4031 96.0914 17.6885 95.8223 18.346C95.5832 18.9737 93.7899 22.0821 93.7899 22.0821C93.7899 22.0821 92.669 24.2042 92.9829 25.8631C95.105 22.6052 99.932 15.9997 102.921 18.0919C104.819 19.4369 104.819 23.7708 103.399 26.2815C102.278 28.2691 99.1101 32.3788 94.8808 31.4224M101.098 21.2602C99.9918 22.4557 98.0191 24.7272 96.465 27.8058C98.1088 27.6265 99.7079 26.7149 100.201 26.2515C100.993 25.5492 102.816 23.6513 102.532 21.1405C102.532 21.1405 102.353 19.8255 101.098 21.2602ZM34.1464 33.1709C28.8559 34.7849 23.8645 34.0378 21.1447 33.3204C21.0699 34.4262 20.9504 34.8896 20.7709 35.0689C20.5618 35.308 18.8282 36.2943 17.8717 34.8896C17.4533 34.217 17.2441 33.0065 17.1246 31.9006C10.9973 29.1209 8.15783 25.0261 8.06816 24.8767C7.91872 24.7272 6.52888 23.2777 7.91872 21.4843C9.21889 19.8703 13.5229 18.2413 17.3785 17.5987C17.528 14.3109 17.8867 11.7704 18.35 10.6495C18.903 9.30453 19.6053 10.5001 20.233 11.3968C20.7411 12.0693 21.055 14.9536 21.0848 17.2551C23.5955 17.1354 25.1198 17.3147 27.9145 17.8528C31.5908 18.4805 34.0417 20.3635 33.8475 22.4856C33.6682 24.5778 31.7553 25.4445 31.0079 25.5044C30.2608 25.5642 29.0652 25.0112 29.0652 25.0112C28.2282 24.6227 28.9905 24.264 29.9618 23.8456C31.0379 23.3225 30.7988 22.7995 30.7988 22.7995C30.4102 21.6039 25.643 20.8118 20.9055 20.8118C20.9055 23.4272 21.01 27.761 21.0848 30.2866C24.4026 30.9143 26.8834 30.7798 26.8834 30.7798C26.8834 30.7798 38.9883 30.4361 39.3321 22.7098C39.7056 14.9686 27.227 7.55602 18.0362 5.22468C8.86022 2.81861 3.65953 4.52229 3.2112 4.74646C2.71802 4.98557 3.16636 5.07524 3.16636 5.07524C3.16636 5.07524 3.65953 5.14995 4.55619 5.44885C5.45287 5.74773 4.73553 6.19608 4.73553 6.19608C3.16636 6.73408 1.41785 6.42025 1.07413 5.70291C0.730405 5.00052 1.2983 4.3579 1.97079 3.41639C2.59847 2.445 3.31581 2.47489 3.31581 2.47489C14.6736 -1.4854 28.5422 5.61323 28.5422 5.61323C41.5139 12.1589 43.7257 19.8553 43.4866 22.8443C43.2775 25.7883 42.1416 30.7648 34.1464 33.1858M9.189 22.4856C7.90377 23.0834 8.80043 24.0399 8.80043 24.0399C11.2215 26.6253 14.1804 28.2542 17.0199 29.2703C17.3487 24.787 17.3189 23.188 17.3189 20.9314C12.9251 21.2302 10.3846 21.9475 9.189 22.4856Z" fill="#FFFFFF"></path>
</g>
<defs>
<clipPath id="clip0_3592_286">
<rect width="105.875" height="44" fill="currentcolor" transform="translate(0.242676 0.666992)"></rect>
</clipPath>
</defs>
</svg>