<svg width="8rem" height="100%" viewBox="0 0 123 22" fill="none" xmlns="http://www.w3.org/2000/svg">
<g clip-path="url(#clip0_221_2)">
<path fill-rule="evenodd" clip-rule="evenodd" d="M31 0.499023L31.0023 18.499H43V15.9879H33.7225V10.8247H41.6633V8.40009H33.7225V3.0412H43V0.499023H31Z" fill="white"></path>
<path fill-rule="evenodd" clip-rule="evenodd" d="M120 19.499H123V0.499023H120V19.499Z" fill="white"></path>
<path fill-rule="evenodd" clip-rule="evenodd" d="M84.7522 0.924805H82.0742V11.4293C82.0742 14.3986 80.0743 16.4723 77.21 16.4723C74.3798 16.4723 72.4034 14.3761 72.4034 11.3746V0.924805H69.7246V11.5696C69.7246 15.7981 72.9431 18.9863 77.21 18.9863C81.5095 18.9863 84.7522 15.7981 84.7522 11.5696V0.924805Z" fill="white"></path>
<path fill-rule="evenodd" clip-rule="evenodd" d="M98.1409 3.35555H102.552C104.587 3.35555 106.121 4.68005 106.121 6.43655C106.121 8.56205 104.325 9.67355 102.552 9.67355H98.1409V3.35555ZM105.56 18.7073H108.791L104.545 11.6168L104.695 11.5576C107.323 10.5091 108.771 8.67005 108.771 6.3803C108.771 3.27005 106.194 0.924805 102.777 0.924805H95.4629V18.7073H98.0842V11.7976H101.818L105.56 18.7073Z" fill="white"></path>
<path fill-rule="evenodd" clip-rule="evenodd" d="M18.6655 12.5972V14.8554C18.6655 18.8214 19.9152 20.8757 22.7144 21.5004L23.351 20.5539C21.6312 19.6907 21.3776 17.7122 21.3731 15.6857L21.3716 15.6339L21.3322 0.909929H19.3445L10.6767 13.9052L2.36169 0.90918H0V18.7232H2.58423L2.56458 6.43668L10.1264 17.4992H11.0817L18.6685 6.43893V12.6009L18.6655 12.5972Z" fill="white"></path>
<path fill-rule="evenodd" clip-rule="evenodd" d="M50.123 16.7079C50.74 17.4354 52.2713 18.9159 54.5134 18.9159C57.9476 18.9159 60.1677 16.5624 60.1677 12.9196V0.889648H57.5048V12.9496C57.5048 15.4801 56.0023 16.6126 54.5134 16.6126C53.4514 16.6126 52.1698 15.6227 51.6354 15.0744L51.3879 15.3137L50.3759 16.4004L50.123 16.7079Z" fill="white"></path>
</g>
<defs>
<clipPath id="clip0_221_2">
<rect width="123" height="22" fill="white"></rect>
</clipPath>
</defs>
</svg>