<svg width="153" height="33" viewBox="0 0 153 33" fill="none" xmlns="http://www.w3.org/2000/svg">
<g clip-path="url(#clip0_214_3)">
<mask id="mask0_214_3" style="mask-type:luminance" maskUnits="userSpaceOnUse" x="0" y="0" width="152" height="33">
<path d="M151.978 0.666992H0.511719V32.667H151.978V0.666992Z" fill="white"></path>
</mask>
<g mask="url(#mask0_214_3)">
<path d="M63.503 7.06676V26.2668H60.1381V11.2001H60.0933L54.0813 26.2668H51.838L45.6913 11.2001H45.6465V26.2668H42.5508V7.06676H47.3962L52.9596 21.2889H53.0493L58.9268 7.06676H63.503ZM66.2848 8.53343C66.2848 8.00009 66.4643 7.55564 66.868 7.20009C67.2717 6.84453 67.7204 6.66676 68.2588 6.66676C68.8421 6.66676 69.3356 6.84453 69.6945 7.20009C70.0535 7.55564 70.2777 8.00009 70.2777 8.53343C70.2777 9.06676 70.0983 9.5112 69.6945 9.86676C69.2908 10.2223 68.8421 10.4001 68.2588 10.4001C67.6756 10.4001 67.2269 10.2223 66.868 9.86676C66.5091 9.46676 66.2848 9.02231 66.2848 8.53343ZM69.9189 12.489V26.2668H66.6437V12.489H69.9189ZM79.8341 23.9112C80.3277 23.9112 80.8661 23.8223 81.4493 23.5556C82.0327 23.3335 82.5711 23.0223 83.0645 22.6668V25.6889C82.5261 26.0001 81.9429 26.2223 81.2699 26.3556C80.5969 26.4889 79.8791 26.5779 79.0715 26.5779C77.0076 26.5779 75.3476 25.9556 74.0913 24.6668C72.7903 23.3779 72.1621 21.7335 72.1621 19.7779C72.1621 17.5556 72.8352 15.7335 74.1362 14.3112C75.4373 12.889 77.2768 12.1779 79.6996 12.1779C80.3277 12.1779 80.9559 12.2668 81.5391 12.4001C82.1672 12.5334 82.6606 12.7556 83.0196 12.9334V16.0445C82.5261 15.6889 81.9877 15.3779 81.4943 15.2001C80.9559 15.0223 80.4175 14.8889 79.8791 14.8889C78.578 14.8889 77.546 15.2889 76.7384 16.1335C75.9309 16.9779 75.572 18.0889 75.572 19.5112C75.572 20.8889 75.9757 22.0001 76.7384 22.7556C77.5012 23.5112 78.533 23.9112 79.8341 23.9112ZM92.3517 12.2668C92.6209 12.2668 92.8452 12.2668 93.0696 12.3112C93.2938 12.3556 93.4733 12.4001 93.608 12.4445V15.7335C93.4285 15.6001 93.2041 15.4668 92.8452 15.3779C92.4863 15.2889 92.1275 15.2001 91.6339 15.2001C90.8263 15.2001 90.1533 15.5556 89.6149 16.2223C89.0765 16.8889 88.7625 17.9112 88.7625 19.3335V26.2668H85.4873V12.489H88.7625V14.6668H88.8073C89.1214 13.9112 89.57 13.3334 90.1533 12.889C90.7814 12.489 91.4993 12.2668 92.3517 12.2668ZM93.7874 19.6001C93.7874 17.3335 94.4604 15.5112 95.7166 14.1779C97.0177 12.8445 98.8124 12.1779 101.101 12.1779C103.254 12.1779 104.959 12.8001 106.17 14.0889C107.382 15.3779 108.01 17.1112 108.01 19.2889C108.01 21.5112 107.337 23.2889 106.081 24.6223C104.78 25.9556 103.03 26.6223 100.787 26.6223C98.6329 26.6223 96.928 26.0001 95.6717 24.7556C94.4156 23.4668 93.7874 21.7335 93.7874 19.6001ZM97.1972 19.4668C97.1972 20.8889 97.5113 22.0001 98.1842 22.7556C98.8572 23.5112 99.7995 23.9112 101.011 23.9112C102.177 23.9112 103.119 23.5556 103.748 22.7556C104.376 22.0001 104.69 20.8889 104.69 19.3779C104.69 17.9112 104.376 16.8001 103.748 16.0001C103.119 15.2445 102.177 14.8445 101.056 14.8445C99.8443 14.8445 98.9469 15.2445 98.274 16.0445C97.5113 16.8889 97.1972 18.0001 97.1972 19.4668ZM112.9 16.1335C112.9 16.5779 113.035 16.9779 113.349 17.2445C113.663 17.5112 114.291 17.8223 115.323 18.2223C116.624 18.7556 117.566 19.3335 118.06 19.9556C118.598 20.6223 118.867 21.3779 118.867 22.3112C118.867 23.6001 118.374 24.6223 117.342 25.4223C116.355 26.2223 114.964 26.5779 113.259 26.5779C112.676 26.5779 112.048 26.4889 111.33 26.3556C110.612 26.2223 110.029 26.0445 109.535 25.8223V22.6223C110.119 23.0223 110.792 23.3779 111.465 23.6001C112.137 23.8223 112.766 23.9556 113.349 23.9556C114.067 23.9556 114.65 23.8668 114.964 23.6445C115.323 23.4223 115.502 23.1112 115.502 22.6223C115.502 22.1779 115.323 21.8223 114.964 21.4668C114.605 21.1556 113.887 20.8001 112.9 20.4001C111.689 19.9112 110.836 19.3335 110.343 18.7112C109.849 18.0889 109.58 17.2889 109.58 16.3112C109.58 15.0668 110.074 14.0445 111.061 13.2445C112.048 12.4445 113.349 12.0445 114.919 12.0445C115.413 12.0445 115.951 12.089 116.534 12.2223C117.118 12.3556 117.656 12.489 118.06 12.6223V15.7779C117.611 15.5112 117.118 15.2445 116.534 15.0223C115.951 14.8001 115.368 14.7112 114.829 14.7112C114.201 14.7112 113.708 14.8445 113.394 15.0668C113.08 15.3779 112.9 15.6889 112.9 16.1335ZM120.258 19.6001C120.258 17.3335 120.931 15.5112 122.187 14.1779C123.489 12.8445 125.283 12.1779 127.571 12.1779C129.725 12.1779 131.43 12.8001 132.641 14.0889C133.852 15.3779 134.481 17.1112 134.481 19.2889C134.481 21.5112 133.808 23.2889 132.551 24.6223C131.25 25.9556 129.501 26.6223 127.257 26.6223C125.104 26.6223 123.399 26.0001 122.143 24.7556C120.931 23.4668 120.258 21.7335 120.258 19.6001ZM123.668 19.4668C123.668 20.8889 123.982 22.0001 124.655 22.7556C125.328 23.5112 126.27 23.9112 127.482 23.9112C128.648 23.9112 129.59 23.5556 130.218 22.7556C130.847 22.0001 131.161 20.8889 131.161 19.3779C131.161 17.9112 130.847 16.8001 130.218 16.0001C129.59 15.2445 128.648 14.8445 127.526 14.8445C126.315 14.8445 125.418 15.2445 124.745 16.0445C124.027 16.8889 123.668 18.0001 123.668 19.4668ZM145.383 15.1556H140.493V26.2668H137.173V15.1556H134.84V12.489H137.173V10.5779C137.173 9.15564 137.667 7.95564 138.608 7.0223C139.551 6.08897 140.761 5.64453 142.243 5.64453C142.647 5.64453 143.005 5.68897 143.319 5.68897C143.633 5.68897 143.903 5.77786 144.127 5.86676V8.66676C144.037 8.6223 143.813 8.53342 143.544 8.44453C143.275 8.35564 142.96 8.3112 142.601 8.3112C141.928 8.3112 141.391 8.53342 141.031 8.93342C140.672 9.33342 140.493 10.0001 140.493 10.8001V12.4445H145.383V9.33343L148.659 8.35564V12.4445H151.979V15.1112H148.659V21.5556C148.659 22.4001 148.837 22.9779 149.107 23.3335C149.421 23.6889 149.915 23.8668 150.588 23.8668C150.767 23.8668 150.992 23.8223 151.26 23.7335C151.529 23.6445 151.755 23.5556 151.933 23.4223V26.0889C151.709 26.2223 151.395 26.3112 150.901 26.4001C150.408 26.4889 149.96 26.5335 149.465 26.5335C148.075 26.5335 147.043 26.1779 146.371 25.4668C145.697 24.7556 145.339 23.6445 145.339 22.1779L145.383 15.1556Z" fill="#FFFFFF"></path>
<path d="M15.1783 0.666992H0.511719V15.3337H15.1783V0.666992Z" fill="#FFFFFF"></path>
<path d="M32.5119 0.666992H17.8452V15.3337H32.5119V0.666992Z" fill="#FFFFFF"></path>
<path d="M15.1783 18H0.511719V32.6667H15.1783V18Z" fill="#FFFFFF"></path>
<path d="M32.5119 18H17.8452V32.6667H32.5119V18Z" fill="#FFFFFF"></path>
</g>
</g>
<defs>
<clipPath id="clip0_214_3">
<rect width="152" height="32" fill="white" transform="translate(0.446777 0.666992)"></rect>
</clipPath>
</defs>
</svg>