<svg width="140" height="45" viewBox="0 0 140 45" fill="none" xmlns="http://www.w3.org/2000/svg">
<g clip-path="url(#clip0_3606_1096)">
<mask id="mask0_3606_1096" style="mask-type:luminance" maskUnits="userSpaceOnUse" x="1" y="0" width="137" height="40">
<path d="M137.788 0.666992H1.66309V39.167H137.788V0.666992Z" fill="white"></path>
</mask>
<g mask="url(#mask0_3606_1096)">
<path d="M30.6934 7.65066C30.5553 7.63911 27.851 7.59814 27.851 7.59814C27.851 7.59814 25.5892 5.40865 25.3658 5.18593C25.2826 5.10292 25.1699 5.05984 25.0518 5.04199L25.0529 38.5343L35.1884 36.0234C35.1884 36.0234 31.0528 8.15077 31.0265 7.95954C31.0001 7.7683 30.8314 7.66221 30.6934 7.65066Z" fill="#FFFFFF"></path>
<path fill-rule="evenodd" clip-rule="evenodd" d="M30.6924 7.65001C30.8315 7.66156 30.9991 7.76766 31.0255 7.95889C31.0517 8.15013 35.1873 36.0239 35.1873 36.0239L25.0508 38.5359L1.66309 34.5037C1.66309 34.5037 4.45388 12.9913 4.55717 12.2338C4.69628 11.2315 4.73001 11.199 5.79658 10.8649C5.81926 10.8576 6.53818 10.6356 7.68259 10.2824C8.18683 10.1267 8.77369 9.94553 9.42 9.74599C9.64552 8.13543 10.4412 6.05519 11.4868 4.39943C12.9728 2.04606 14.8056 0.721243 16.6457 0.668713C17.5996 0.640346 18.3951 0.962884 19.0159 1.62476C19.0602 1.6731 19.1024 1.72247 19.1446 1.7729C19.1551 1.772 19.1657 1.7711 19.1763 1.77019C19.2645 1.76259 19.3521 1.75505 19.4407 1.75505H19.4459C20.871 1.75714 22.0503 2.56716 22.8554 4.09895C23.1052 4.57382 23.2802 5.0466 23.3993 5.43113C23.5811 5.37503 23.7439 5.32476 23.8858 5.28098C24.2991 5.15342 24.5353 5.08022 24.5353 5.08022C24.705 5.0298 25.1414 4.96256 25.3647 5.18528C25.5882 5.40802 27.85 7.5975 27.85 7.5975C27.85 7.5975 30.5544 7.63846 30.6924 7.65001ZM21.067 6.15084C21.4821 6.02267 21.8715 5.90252 22.2284 5.79254C21.9385 4.85329 21.2513 3.27843 19.8548 3.01472C20.2891 4.13152 20.3997 5.42378 20.4135 6.35252C20.6375 6.2834 20.8556 6.21608 21.067 6.15084ZM15.285 7.93579L19.1899 6.73073C19.2025 5.71689 19.0918 4.21767 18.5828 3.15866C18.0411 3.38139 17.5837 3.77116 17.257 4.12102C16.378 5.06131 15.6623 6.4954 15.285 7.93579ZM17.7892 2.17843C17.4783 1.97462 17.1147 1.88006 16.6826 1.88952C13.8422 1.97147 11.3645 6.39348 10.731 9.34048C11.3125 9.16148 11.9229 8.97295 12.5502 8.7792C13.0055 8.63859 13.4697 8.49524 13.9381 8.35077C14.2954 6.47858 15.1912 4.53811 16.3601 3.28788C16.8111 2.80565 17.2917 2.43583 17.7892 2.17843ZM18.2558 17.2368L19.433 12.8464C19.433 12.8464 18.4181 12.3421 16.4345 12.4692C11.2862 12.7928 8.95274 16.3817 9.17725 19.9232C9.32702 22.2875 10.7244 23.276 11.9491 24.1422C12.9046 24.818 13.755 25.4196 13.8261 26.542C13.8651 27.1609 13.4794 28.0361 12.4001 28.1044C10.7476 28.2084 8.68296 26.6556 8.68296 26.6556L7.89355 30.0028C7.89355 30.0028 9.94449 32.1933 13.6701 31.959C16.7739 31.7636 18.9282 29.2884 18.6994 25.6701C18.5236 22.8881 16.5583 21.632 15.0051 20.6391C13.9902 19.9906 13.1512 19.4543 13.1021 18.6783C13.0788 18.3179 13.1031 16.8828 15.3859 16.7388C16.9426 16.6412 18.2558 17.2368 18.2558 17.2368Z" fill="#FFFFFF"></path>
<path d="M48.5359 22.0401C47.3703 21.4096 46.7714 20.8782 46.7714 20.1477C46.7714 19.2182 47.6034 18.621 48.9028 18.621C50.4154 18.621 51.7659 19.2514 51.7659 19.2514L52.8311 15.9982C52.8311 15.9982 51.8516 15.2344 48.9686 15.2344C44.9566 15.2344 42.1761 17.5248 42.1761 20.7447C42.1761 22.5704 43.4744 23.9647 45.2065 24.9597C46.6051 25.7559 47.1048 26.3207 47.1048 27.1501C47.1048 28.0131 46.4055 28.7101 45.1072 28.7101C43.1722 28.7101 41.3449 27.7139 41.3449 27.7139L40.2129 30.9671C40.2129 30.9671 41.9011 32.0957 44.7413 32.0957C48.8703 32.0957 51.8338 30.071 51.8338 26.4197C51.8329 24.4627 50.3348 23.0684 48.5359 22.0401Z" fill="#FFFFFF"></path>
<path d="M64.9852 15.202C62.954 15.202 61.3557 16.1649 60.1243 17.6247L60.0574 17.5914L61.8218 8.39746H57.2266L52.7651 31.7975H57.3604L58.8919 23.7989C59.4908 20.778 61.0557 18.92 62.5213 18.92C63.553 18.92 63.9534 19.6171 63.9534 20.6133C63.9534 21.2437 63.8864 22.0075 63.7537 22.6381L62.0226 31.7986H66.6181L68.4155 22.3389C68.6157 21.3427 68.7492 20.1487 68.7492 19.3514C68.7473 16.7619 67.3823 15.202 64.9852 15.202Z" fill="#FFFFFF"></path>
<path d="M79.1357 15.2021C73.6078 15.2021 69.9463 20.181 69.9463 25.7236C69.9463 29.275 72.1434 32.1291 76.2727 32.1291C81.6999 32.1291 85.3626 27.2836 85.3626 21.6076C85.3626 18.322 83.4309 15.2021 79.1357 15.2021ZM76.8716 28.6123C75.3064 28.6123 74.6404 27.2847 74.6404 25.6247C74.6404 23.0029 76.0062 18.7212 78.5032 18.7212C80.1349 18.7212 80.6666 20.1154 80.6666 21.4763C80.6666 24.2971 79.3029 28.6123 76.8716 28.6123Z" fill="#FFFFFF"></path>
<path d="M97.1163 15.2021C94.0146 15.2021 92.2544 17.924 92.2544 17.924H92.1886L92.455 15.4678H88.3929C88.1935 17.1278 87.8262 19.6496 87.4609 21.542L84.2642 38.3033H88.8595L90.1239 31.5321H90.2245C90.2245 31.5321 91.1673 32.1291 92.9217 32.1291C98.3154 32.1291 101.844 26.6199 101.844 21.0429C101.844 17.9574 100.479 15.2021 97.1163 15.2021ZM92.721 28.6778C91.5281 28.6778 90.8222 28.0141 90.8222 28.0141L91.5884 23.7324C92.1215 20.8781 93.6194 18.9859 95.2181 18.9859C96.6167 18.9859 97.0492 20.28 97.0492 21.5086C97.0492 24.4628 95.2846 28.6778 92.721 28.6778Z" fill="#FFFFFF"></path>
<path d="M108.405 8.62988C106.94 8.62988 105.774 9.79176 105.774 11.285C105.774 12.6459 106.64 13.5754 107.939 13.5754H108.005C109.437 13.5754 110.669 12.6125 110.702 10.9203C110.702 9.5927 109.803 8.62988 108.405 8.62988Z" fill="#FFFFFF"></path>
<path d="M101.979 31.7972H106.573L109.703 15.5674H105.075L101.979 31.7972Z" fill="#FFFFFF"></path>
<path d="M121.39 15.5346H118.194L118.36 14.7708C118.626 13.211 119.559 11.8167 121.09 11.8167C121.908 11.8167 122.555 12.0491 122.555 12.0491L123.454 8.46447C123.454 8.46447 122.655 8.06641 120.956 8.06641C119.324 8.06641 117.694 8.53111 116.461 9.59296C114.896 10.9206 114.164 12.8452 113.798 14.7708L113.665 15.5346H111.534L110.868 18.987H112.999L110.569 31.799H115.164L117.595 18.987H120.758L121.39 15.5346Z" fill="#FFFFFF"></path>
<path d="M132.444 15.5685C132.444 15.5685 129.572 22.7826 128.282 26.7204H128.215C128.128 25.4523 127.083 15.5685 127.083 15.5685H122.255L125.02 30.4707C125.087 30.8021 125.053 31.0022 124.919 31.2345C124.386 32.263 123.487 33.2592 122.422 33.9898C121.556 34.6201 120.591 35.0181 119.825 35.2839L121.09 39.1676C122.023 38.9686 123.953 38.2048 125.585 36.6782C127.683 34.7202 129.614 31.6993 131.611 27.5832L137.238 15.5674L132.444 15.5685Z" fill="#FFFFFF"></path>
</g>
</g>
<defs>
<clipPath id="clip0_3606_1096">
<rect width="138.875" height="44" fill="#FFFFFF" transform="translate(0.522949 0.666992)"></rect>
</clipPath>
</defs>
</svg>