<svg width="54" height="33" viewBox="0 0 54 33" fill="#FFFFFF" xmlns="http://www.w3.org/2000/svg">
<g>
<path d="M4.58582 15.6787H8.11439V4.17433H12.5825V1.12598H0.117676V4.17433H4.58582V15.6787Z" fill="#FFFFFF"></path>
<path d="M13.6657 15.6787L14.48 13.5491H20.3053L21.0987 15.6787H24.9822L19.0317 1.12598H16.0668L9.86572 15.6787H13.6657ZM17.4657 5.48972L19.2405 10.6469H15.5657L17.4657 5.48972Z" fill="#FFFFFF"></path>
<path d="M31.9173 15.9265C34.2557 16.0309 36.4898 15.0496 38.014 13.2749L35.07 11.0826C34.3184 12.1057 33.1074 12.6694 31.8337 12.6068C29.4953 12.6068 28.1799 10.8111 28.1799 8.36829C27.9085 6.28037 29.3909 4.38037 31.4788 4.10894C31.6458 4.08806 31.8129 4.08806 31.9799 4.08806C33.17 4.06718 34.2766 4.6518 34.903 5.67488L37.7843 3.60784C36.4271 1.83311 34.2975 0.789152 32.0634 0.85179C28.159 0.60124 24.7975 3.5452 24.5469 7.4496C24.526 7.78367 24.526 8.13861 24.5469 8.47268C24.3381 12.3771 27.3238 15.6969 31.2074 15.9265C31.4579 15.9265 31.6876 15.9265 31.9173 15.9265Z" fill="#FFFFFF"></path>
<path d="M45.6568 15.9278C49.8744 16.0322 53.3613 12.6915 53.4448 8.4739C53.5492 4.25631 50.2085 0.769492 45.9909 0.685975C41.7733 0.58158 38.2865 3.92224 38.203 8.13983C38.203 8.22335 38.203 8.30687 38.203 8.41126C37.9942 12.3574 41.0426 15.719 44.9887 15.9278C45.2184 15.9278 45.4272 15.9278 45.6568 15.9278ZM45.6568 4.11016C47.7656 4.15191 49.436 5.90576 49.3733 7.99368C49.3733 8.11895 49.3525 8.26511 49.3525 8.39038C49.8118 10.4365 48.5382 12.4827 46.492 12.942C44.4459 13.4014 42.3997 12.1278 41.9404 10.0816C41.8151 9.51786 41.8151 8.95412 41.9404 8.39038C41.6689 6.30247 43.1513 4.40246 45.2393 4.13104C45.3645 4.13104 45.5107 4.11016 45.6568 4.11016Z" fill="#FFFFFF"></path>
<path d="M13.2319 24.779C14.5473 24.257 15.3615 22.9416 15.2571 21.5427C15.2571 19.3713 13.5451 18.0977 10.1835 18.0977H4.58789V32.6504H10.9143C14.6099 32.6504 16.4055 31.3142 16.4055 28.4746C16.4681 26.5955 15.0901 24.9878 13.2319 24.779ZM7.90768 20.9581H9.32746C11.0187 20.9581 11.7077 21.2922 11.7077 22.357C11.7077 23.401 11.0395 23.8812 9.80768 23.8812H7.86592L7.90768 20.9581ZM10.0373 29.6438H7.86592V26.5955H10.0373C11.9374 26.5955 12.7516 27.0131 12.7516 28.0988C12.7516 29.1845 12.1879 29.6021 10.0373 29.6021V29.6438Z" fill="#FFFFFF"></path>
<path d="M21.3543 26.7834H27.4927V23.8185H21.3543V21.1669H28.7455V18.0977H17.8257V32.6504H28.8916V29.6021H21.3543V26.7834Z" fill="#FFFFFF"></path>
<path d="M34.173 18.0977H30.6235V32.6504H40.5829V29.6021H34.173V18.0977Z" fill="#FFFFFF"></path>
<path d="M45.8445 18.0977H42.3159V32.6504H52.2753V29.6021H45.8445V18.0977Z" fill="#FFFFFF"></path>
</g>
</svg>