<svg xmlns="http://www.w3.org/2000/svg" xmlns:xlink="http://www.w3.org/1999/xlink" xmlns:serif="http://www.serif.com/" width="100%" height="100%" viewBox="0 0 3000 361" version="1.1" xml:space="preserve" style="fill-rule:evenodd;clip-rule:evenodd;stroke-linejoin:round;stroke-miterlimit:2;">
    <g transform="matrix(1,0,0,1,0,-1080)">
        <path d="M540,1092L540,1370L446,1103C444,1096 439,1093 429,1093L342,1093L342,1430L402,1430L402,1156L495,1419C497,1426 503,1429 510,1429L600,1429L600,1092L540,1092ZM850,1092L850,1430L920,1430L920,1286L1045,1286L1045,1224L920,1224L920,1154L1047,1154L1047,1092L850,1092ZM2453,1093L2453,1158L2530,1158L2530,1430L2600,1430L2600,1157L2677,1157L2677,1092L2452,1092L2453,1093ZM1290,1430L1365,1430L1365,1093L1290,1093L1290,1430ZM2140,1430L2215,1430L2215,1093L2140,1093L2140,1430ZM2915,1430L2989,1430L2989,1093L2915,1093L2915,1430ZM10,1430L85,1430L85,1093L10,1093L10,1430ZM1883,1093L1823,1093L1823,1370L1729,1103C1727,1096 1722,1093 1713,1093L1625,1093L1625,1430L1685,1430L1685,1156L1778,1419C1780,1426 1786,1429 1793,1429L1883,1429L1883,1092L1883,1093ZM1805,540L1500,130L1195,540C1092,530 915,463 915,344C915,194 1175,54 1501,54C1844,54 2087,194 2087,344C2087,464 1909,531 1807,539M1500,10C1078,10 784,175 784,388C784,488 848,600 984,668C1111,731 1289,753 1314,756L1500,213L1686,756C1799.77,743.255 1910.99,713.595 2016,668C2152,600 2216,488 2216,388C2215,174 1922,10 1500,10" style="fill:rgb(35,31,32);fill-rule:nonzero;"/>
    </g>
</svg>