<?xml version="1.0" encoding="UTF-8" standalone="no"?>
<!DOCTYPE svg PUBLIC "-//W3C//DTD SVG 1.1//EN" "http://www.w3.org/Graphics/SVG/1.1/DTD/svg11.dtd">
<svg width="100%" height="100%" viewBox="0 0 2500 292" version="1.1" xmlns="http://www.w3.org/2000/svg" xmlns:xlink="http://www.w3.org/1999/xlink" xml:space="preserve" xmlns:serif="http://www.serif.com/" style="fill-rule:evenodd;clip-rule:evenodd;stroke-linejoin:round;stroke-miterlimit:2;">
    <g transform="matrix(1,0,0,1,0,-908)">
        <path d="M445.906,912.873L445.906,1145.31C445.906,1145.31 369.102,927.462 367.341,921.758C365.478,915.944 361.284,912.865 353.389,912.865L280.143,912.865L280.143,1195.84L329.589,1195.84L329.589,966.481C329.589,966.481 405.227,1181.37 407.156,1186.96C408.826,1192.62 413.691,1195.85 420.067,1195.85L495.327,1195.85L495.327,912.865L445.906,912.873ZM705.847,912.873L705.847,1195.84L763.985,1195.84L763.884,1075.43L868.616,1075.43L868.616,1023.7L763.985,1023.85L763.985,964.954L870.193,964.954L870.193,912.865L705.847,912.873ZM2049.95,912.873L2049.95,967.278L2114.86,967.278L2114.86,1195.82L2173.97,1195.82L2173.97,967.278L2238.75,967.278L2238.75,912.865L2049.95,912.873ZM1074.79,1195.83L1137.37,1195.83L1137.37,912.974L1074.79,912.974L1074.79,1195.83ZM1787.62,1195.83L1850.22,1195.83L1850.22,912.974L1787.62,912.974L1787.62,1195.83ZM2437.69,1195.83L2500,1195.83L2500,912.974L2437.69,912.974L2437.69,1195.83ZM0,1195.83L62.601,1195.83L62.601,912.974L0,912.974L0,1195.83ZM1571.38,912.873L1521.95,912.873L1521.95,1145.31C1521.95,1145.31 1445.21,927.462 1443.37,921.758C1441.49,915.944 1437.29,912.865 1429.6,912.865L1356.19,912.865L1356.19,1195.84L1405.54,1195.84L1405.54,966.481C1405.54,966.481 1481.38,1181.37 1483.14,1186.96C1484.92,1192.62 1489.82,1195.85 1496.02,1195.85L1571.38,1195.85L1571.38,912.873ZM1506.22,448.419C1482.37,417.521 1250.03,104.358 1250.03,104.358C1250.03,104.358 1016.8,420.172 994.505,449.115C908.364,441.766 758.683,384.308 758.683,284.593C758.683,157.798 976.007,40.365 1250.03,40.365C1537.79,40.365 1741.41,157.798 1741.41,284.593C1741.41,384.308 1592.48,441.078 1506.22,448.419M1250.03,4.148C896.107,4.148 649.773,142.387 649.773,321.43C649.773,404.954 703.633,499.451 817.936,556.279C924.035,608.972 1073.91,627.336 1095.55,629.996L1250.03,174.803L1406.08,630.004C1427.66,627.345 1576.17,608.972 1682.28,556.279C1796.52,499.459 1850.4,404.954 1850.4,321.43C1850.4,142.387 1603.99,4.148 1250.03,4.148" style="fill:white;fill-rule:nonzero;"/>
    </g>
</svg>
