<svg xmlns="http://www.w3.org/2000/svg" width="84" height="32" viewBox="0 0 84 32" fill="none">
<g id="Frame" clip-path="url(#clip0_1_4445)">
<path id="Vector" fill-rule="evenodd" clip-rule="evenodd" d="M67.6155 31.9327C66.7628 30.6985 66.7179 28.3871 69.0068 25.425L70.241 23.7419L71.767 26.3001C73.3603 29.0379 73.6071 30.7882 72.9114 31.9327H83.2789C81.4158 30.2127 79.8932 28.1572 78.7908 25.8738L75.6267 20.5105L77.2424 18.2665C78.8187 15.9471 80.7064 13.8555 82.8525 12.0505H77.3098C78.2298 13.2174 78.2298 15.5961 76.0082 18.5582L75.1779 19.7027L73.9437 17.683C72.3056 14.9229 72.1709 13.0379 72.8441 12.0505H62.4318C64.2962 13.7606 65.8192 15.809 66.9199 18.087L69.8371 22.979L67.8175 25.6943C66.2286 28.0314 64.3086 30.1253 62.1176 31.9102H67.6604L67.6155 31.9327ZM51.1443 31.9327H59.7165C58.9713 29.5921 58.6446 27.1385 58.7516 24.6844V11.2202L50.0896 13.4642V13.6886C51.6161 15.4978 52.3662 17.8368 52.1765 20.1964V24.6844C52.2144 27.1102 51.8659 29.5266 51.1443 31.8429V31.9327ZM58.4598 5.00421C58.4137 4.07746 58.0128 3.20398 57.3402 2.56478C56.6676 1.92558 55.7748 1.56968 54.8469 1.57083C53.9066 1.57083 53.0048 1.94438 52.3398 2.6093C51.6749 3.27423 51.3013 4.17606 51.3013 5.11641C51.3013 6.05676 51.6749 6.95859 52.3398 7.62351C53.0048 8.28844 53.9066 8.66199 54.8469 8.66199C55.7974 8.66206 56.7096 8.28759 57.3859 7.61971C58.0622 6.95184 58.448 6.04437 58.4598 5.09397V5.00421ZM34.3813 31.9327C33.6461 29.5905 33.3346 27.136 33.4612 24.6844V16.4264C33.8597 15.8286 34.3957 15.3353 35.0244 14.9877C35.6531 14.6402 36.3561 14.4486 37.0741 14.4292C37.4709 14.4027 37.8686 14.4645 38.2387 14.6101C38.6087 14.7556 38.942 14.9813 39.2145 15.2709C39.4869 15.5606 39.6919 15.907 39.8146 16.2852C39.9373 16.6635 39.9747 17.0642 39.9241 17.4586V24.8191C40.0129 27.235 39.6554 29.6465 38.8694 31.9327H47.464C46.6937 29.5983 46.3813 27.1372 46.544 24.6844V17.0547C46.5603 16.2599 46.4082 15.4707 46.0977 14.7389C45.7872 14.0071 45.3253 13.3494 44.7424 12.8089C44.1595 12.2683 43.4688 11.8573 42.7157 11.6029C41.9626 11.3484 41.1642 11.2562 40.3729 11.3324C38.9779 11.3379 37.608 11.7046 36.3968 12.3967C35.1856 13.0889 34.1742 14.0829 33.4612 15.2819H33.3042V11.2202L24.7992 13.4642C25.5794 14.3893 26.1644 15.4625 26.5192 16.6194C26.874 17.7763 26.9912 18.993 26.8638 20.1964V24.6844C26.9604 27.1119 26.6184 29.5369 25.8539 31.8429H34.3813V31.9327ZM23.3631 31.9327C22.059 30.6991 21.0006 29.2295 20.2438 27.6017L14.5664 17.9523L15.8904 16.6732C17.7387 14.7599 19.9214 13.2008 22.3308 12.0729H15.105C15.6174 12.8522 15.8209 13.7945 15.6757 14.7157C15.5304 15.6369 15.0469 16.4709 14.3196 17.0547L9.38269 21.5428V0L0.720703 2.37868C1.48381 3.28733 2.05919 4.33827 2.41356 5.4707C2.76793 6.60314 2.89425 7.79459 2.78522 8.97616V25.5372C2.86773 27.7052 2.53252 29.8688 1.79784 31.9102H10.774C9.83354 29.9222 9.39438 27.7341 9.4949 25.5372V21.5203L15.5089 32L23.3631 31.9327Z" fill="white"></path>
</g>
<defs>
<clipPath id="clip0_1_4445">
<rect width="82.5582" height="32" fill="white" transform="translate(0.720703)"></rect>
</clipPath>
</defs>
</svg>