<svg xmlns="http://www.w3.org/2000/svg" width="99" height="24" viewBox="0 0 99 24" fill="none">
<mask id="mask0_1_85" style="mask-type:luminance" maskUnits="userSpaceOnUse" x="0" y="0" width="99" height="24">
<path d="M0.265625 0.15625H98.9792V23.3854H0.265625V0.15625Z" fill="white"/>
</mask>
<g mask="url(#mask0_1_85)">
<path d="M25.5417 6.07292C25.5417 2.08333 21.4011 0.15625 16.4844 0.15625C11.224 0.15625 6.39065 2.54687 4.61982 6.23437C4.12503 7.22396 3.88023 8.3125 3.88023 9.41146C3.8594 10.3698 4.11461 11.3073 4.61982 12.1146C5.38023 13.2604 6.73961 13.9896 8.72919 13.9896C11.1719 13.9896 13.1042 12.6198 13.1042 10.2396C13.1042 10.2396 13.1407 9.57292 12.3854 9.57292C11.7761 9.57292 11.6042 10.0156 11.625 10.2396C11.7136 12.1042 10.6302 13.6042 8.69794 13.6042C6.53128 13.6042 5.62503 11.7187 5.62503 9.70312C5.62503 5.58333 8.66148 2.83854 11.8229 1.66146C13.3021 1.08333 14.8698 0.802082 16.4531 0.822917C20.0313 0.822917 22.9688 2.22396 22.9688 6.00521C22.9688 9.15104 20.3854 11.8333 17.2917 12.0729L17.4219 11.651C18.0521 9.34375 18.8281 6.80208 20.099 4.9375C20.1667 4.82292 20.2969 4.64583 20.4427 4.45312L20.2656 4.22917C20 4.40104 19.7344 4.58333 19.4896 4.78646C13.5573 9.52083 13.3802 22.8281 5.47919 22.8281C5.20315 22.8281 4.93232 22.8073 4.66148 22.7708C2.99482 22.4948 2.12503 21.3698 2.12503 19.7969C2.12503 19.4844 2.2344 19.0573 2.2344 18.8177C2.24482 18.375 1.90107 18 1.46878 17.9792H1.45836H1.36982C0.656276 17.9792 0.369818 18.5573 0.354193 19.3698C0.302109 21.7187 2.00003 23.0937 4.61982 23.3437C4.90628 23.3646 5.20315 23.3854 5.50523 23.3854C11.6771 23.3854 15.4479 18.6146 17.0677 12.8281C17.8854 12.7292 18.6823 12.5573 19.4688 12.3177C22.3282 11.4896 25.5417 9.53125 25.5417 6.07292ZM84.2813 7.45833H82.1094L81.6198 8.625L80.7709 10.5833H79.7552L79.4531 11.2448H80.5052L79.2344 14.1094C78.3281 16.125 76.9167 18.1042 76.1094 18.1042C75.9323 18.1042 75.8229 18.0312 75.8229 17.8385C75.8229 17.6562 75.875 17.4844 76.0834 16.974C76.3386 16.3594 76.75 15.4687 77.0573 14.8229C77.5104 13.8802 78.2292 12.4271 78.2292 11.6979C78.2292 10.974 77.7761 10.4115 76.8906 10.4115C75.8959 10.4115 74.9896 11.026 74.1615 11.9115L74.7031 10.5833H72.6615L70.9844 14.474C70.3177 15.8437 68.9584 18.1094 68.1094 18.1094C67.9323 18.1094 67.8542 18 67.8542 17.8177C67.875 17.6562 67.9115 17.4844 67.9792 17.3333C68.0521 17.1719 69.0469 14.7865 69.0469 14.7865L70.8594 10.5521H68.6511L66.8959 14.6719C66.3542 15.9531 64.9844 18.1094 64.099 18.1094C63.9427 18.1302 63.8021 18.0104 63.7917 17.849V17.7812C63.7917 17.5573 63.9584 17.1562 64.0781 16.8542L65.0052 14.7865L66.9063 10.5521H64.7188L64.2865 11.5104C63.9584 12.1562 63.4167 12.9115 62.5521 12.9115C62.1354 12.9115 61.9427 12.75 61.8438 12.5781C61.7136 11.1562 60.8281 10.401 59.5261 10.401C57.7136 10.401 56.4323 11.4896 55.5834 12.8177C55.0209 13.7344 54.5886 14.724 54.2813 15.7604C53.5052 17.0729 52.6979 18.0937 52.0365 18.0937C51.8698 18.0937 51.7604 18 51.7604 17.7812C51.7604 17.5573 51.9792 17.0625 52.0469 16.8698L53.474 13.7656C53.8698 12.8073 54.1459 12.1719 54.1459 11.5469C54.1459 10.8854 53.6927 10.401 52.9531 10.401C51.9167 10.401 50.8073 11.0156 49.9167 12.0104C49.9479 11.8542 49.9584 11.6927 49.9584 11.5312C49.9584 10.7917 49.5938 10.401 48.8542 10.401C47.9167 10.401 46.9427 10.974 46.0573 12.0104L46.6354 10.5729H44.6459L42.9636 14.4531C42.1615 16.2865 40.8802 18.0937 40.1615 18.0937C40.0052 18.0937 39.8854 18 39.8854 17.7812C39.8854 17.4271 40.2709 16.5573 40.4115 16.2083L42.625 11.0469C42.7917 10.651 41.7188 10.4219 40.3698 10.4219C38.9792 10.4219 37.5521 11.125 36.4948 12.0312C35.7604 12.6562 35.2188 12.9792 34.9427 12.9792C34.8542 13 34.7604 12.9427 34.7448 12.849C34.7448 12.8385 34.7448 12.8281 34.7448 12.8073C34.7448 12.4948 35.4844 11.6094 35.4844 10.9219C35.4844 10.6094 35.3229 10.4115 34.9011 10.4115C34.1042 10.4115 33.1667 11.1875 32.4792 12.0052L33.0573 10.5833H31.1094L29.4219 14.4635C28.625 16.2969 27.3021 18.2031 26.5834 18.2031C26.4167 18.2031 26.3177 18.1094 26.3177 17.8906C26.3177 17.5365 26.6823 16.6927 26.8802 16.2448L29.1042 11.0677C29.2761 10.6719 28.1979 10.4427 26.849 10.4427C24.8386 10.4427 22.8906 11.8333 21.8646 13.2552C20.7188 14.7865 19.9531 16.4167 19.9323 17.75C19.9115 18.8177 20.4531 19.4844 21.5365 19.4844C22.75 19.4844 23.724 18.5052 24.2865 17.7604C24.2604 17.9115 24.2292 18.0521 24.2188 18.2031C24.2188 18.9375 24.5052 19.4844 25.3906 19.4844C26.1719 19.4844 27.2031 18.8177 28.0313 17.7604L27.3542 19.3125H29.4688L31.5521 14.4844C32.2396 12.9115 33.0209 12.0937 33.2344 12.0937C33.2865 12.0833 33.3334 12.1146 33.3438 12.1667C33.3438 12.1719 33.3438 12.1719 33.3438 12.1823C33.3438 12.3542 33.0209 12.7969 33.0209 13.2031C33.0209 13.6042 33.2344 13.9167 33.8177 13.9167C34.2709 13.9167 34.7709 13.6979 35.224 13.4062C34.1615 14.8854 33.4323 16.4375 33.4323 17.7083C33.4115 18.776 33.9531 19.4427 35.0365 19.4427C36.1823 19.4427 37.2448 18.3333 37.8281 17.599C37.8073 17.7708 37.7969 17.9427 37.7865 18.1094C37.7865 18.8385 38.1823 19.4427 39 19.4427C39.9063 19.4427 40.625 18.8698 41.5313 17.7396L40.8646 19.2917H43.0313L45.0209 14.6823C45.8906 12.6875 47.0625 11.6094 47.6406 11.6094C47.7917 11.5885 47.9167 11.6979 47.9271 11.8542V11.901C47.9063 12.125 47.8386 12.3437 47.75 12.5469L44.8906 19.2917H47.1198L49.1511 14.5937C50.0156 12.5781 50.974 11.599 51.7031 11.599C51.9167 11.599 52.0052 11.7083 52.0052 11.9531C51.9896 12.2135 51.9167 12.4583 51.8125 12.6875L49.8594 16.9427C49.6823 17.3542 49.5729 17.7917 49.5365 18.2344C49.5365 18.8802 49.8802 19.4531 50.8542 19.4531C52.125 19.4531 53.0834 18.474 54.1667 17.0104V17.3229C54.2552 18.4948 54.8854 19.5052 56.5677 19.5052C58.5625 19.5052 60.1667 18.1042 61.1406 15.8646C61.5052 15.0781 61.7552 14.2292 61.8542 13.3646C62.0677 13.474 62.3125 13.526 62.5625 13.5156C62.8854 13.5156 63.2136 13.4323 63.4948 13.2708L63.1511 14.0312C62.7604 14.875 62.3125 15.8229 61.9792 16.6198C61.7604 17.0937 61.6354 17.599 61.5938 18.1198C61.5938 18.9167 62.0313 19.4948 62.9167 19.4948C63.8021 19.4948 65.0156 18.6458 65.8802 17.4375H65.9011C65.8438 17.6875 65.8125 17.9427 65.8125 18.1927C65.8125 18.8594 66.0104 19.4844 66.9167 19.4844C67.9688 19.4844 68.7813 18.7083 69.5781 17.7292L68.9063 19.2812H71.0938L72.849 15.2083C73.8438 12.9219 74.8386 11.5312 75.7552 11.5312C75.9115 11.5208 76.0521 11.6406 76.0625 11.8125V11.8594C76.0625 12.2552 75.5209 13.3021 75.0261 14.3594C74.5729 15.3177 74.2292 16.0677 73.9896 16.6406C73.7761 17.125 73.6459 17.6458 73.6094 18.1719C73.6094 18.8802 73.9896 19.4115 74.8386 19.4115C76.099 19.4115 77.3906 18.151 78.0729 17.2135C77.9115 17.6667 77.8334 18.1406 77.8177 18.6146C77.8177 19.9062 78.5729 20.5625 79.6406 20.5625C80.349 20.5521 81.0365 20.3177 81.6094 19.8958C82.4375 19.3021 83.1094 18.4167 83.6667 17.6094L83.2865 17.2344C82.7604 17.9896 82.1823 18.7187 81.5781 19.1615C81.2656 19.4323 80.8698 19.5833 80.4584 19.6042C80.0052 19.6042 79.7188 19.3594 79.7188 18.776C79.7188 18.1927 79.9844 17.3854 80.4063 16.3177C80.4271 16.2969 81.0156 14.9271 81.5781 13.6146C82.0521 12.5052 82.5156 11.4375 82.6146 11.2187H84.0417L84.3281 10.5521H82.9219L84.2813 7.45833ZM22.5938 18.1302C22.2865 18.1302 22.0729 18.0208 22.0729 17.6198C22.0886 16.5312 22.9792 14.5833 24.0834 13.0312C24.8594 11.9635 25.875 11.1667 26.9584 11.1667L25.5781 14.3021C24.5469 16.6719 23.4323 18.1302 22.5938 18.1302ZM36.125 18.1302C35.8177 18.1302 35.599 18.0208 35.5834 17.6198C35.599 16.5312 36.4896 14.5833 37.5886 13.0312C38.3698 11.9635 39.3854 11.1667 40.4688 11.1667L39.0886 14.3125C38.0365 16.7187 36.9688 18.1302 36.125 18.1302ZM60.1354 12.0104C60.0886 13.2135 59.0521 16.1146 57.8386 17.8594C57.3594 18.5677 56.9323 18.7656 56.5781 18.7656C56.0781 18.7656 55.9271 18.3437 56 17.7083C56.1042 16.6198 56.9948 14.0677 58.224 12.3073C58.7865 11.5104 59.1615 11.1771 59.5938 11.1771C60.0313 11.1771 60.1563 11.5469 60.1354 12.0104ZM93.8854 10.5833L95.8802 5.88541H93.5209L91.5313 10.5833H86.5261L85.6875 12.5573H90.7032L88.7136 17.2552H91.0677L93.0573 12.5573H98.0677L98.9011 10.5833H93.8854Z" fill="black"/>
</g>
</svg>