<svg width="102" height="24" viewBox="0 0 102 24" fill="none" xmlns="http://www.w3.org/2000/svg">
<mask id="mask0_1_161" style="mask-type:luminance" maskUnits="userSpaceOnUse" x="0" y="0" width="102" height="24">
<path d="M0 0H101.615V23.2292H0V0Z" fill="white"/>
</mask>
<g mask="url(#mask0_1_161)">
<path d="M26.0209 5.92187C26.0209 1.92708 21.7604 0 16.698 0C11.2813 0 6.31254 2.39062 4.48441 6.07813C3.9792 7.06771 3.72399 8.15625 3.72399 9.25521C3.70316 10.2135 3.96879 11.151 4.48441 11.9583C5.26566 13.1094 6.6667 13.8333 8.71358 13.8333C11.2292 13.8333 13.2188 12.4635 13.2188 10.0833C13.2188 10.0833 13.2605 9.41667 12.4792 9.41667C11.849 9.41667 11.6771 9.85937 11.698 10.0833C11.7865 11.9479 10.6719 13.4479 8.68233 13.4479C6.45316 13.4479 5.52087 11.5625 5.52087 9.54687C5.52087 5.42708 8.64587 2.68229 11.9011 1.50521C13.4219 0.927082 15.0313 0.645833 16.6667 0.666667C20.349 0.666667 23.3698 2.06771 23.3698 5.84896C23.3698 8.99479 20.7136 11.6771 17.5313 11.9167L17.6615 11.4948C18.3073 9.1875 19.1094 6.64583 20.4219 4.78125C20.4896 4.67187 20.6198 4.48958 20.7761 4.29687L20.5938 4.07292C20.3177 4.24479 20.0417 4.42708 19.7917 4.63021C13.6823 9.36458 13.5 22.6719 5.36983 22.6719C5.08337 22.6719 4.80733 22.651 4.52608 22.6146C2.81254 22.3385 1.9167 21.2135 1.9167 19.6406C1.9167 19.3281 2.03129 18.901 2.03129 18.6615C2.0417 18.2187 1.68754 17.8437 1.23962 17.8229H1.2292H1.13545C0.406286 17.8229 0.114619 18.401 0.0937862 19.2135C0.0417035 21.5625 1.78649 22.9375 4.48441 23.1875C4.78129 23.2083 5.08337 23.2292 5.39587 23.2292C11.7448 23.2292 15.6302 18.4583 17.2969 12.6719C18.1355 12.5729 18.9584 12.401 19.7709 12.1615C22.7136 11.3333 26.0209 9.375 26.0209 5.92187ZM86.4792 7.30208H84.25L83.7396 8.46875L82.8698 10.4271H81.8229L81.5104 11.0885H82.5938L81.2865 13.9531C80.3542 15.9687 78.9011 17.9479 78.0729 17.9479C77.8907 17.9479 77.7761 17.875 77.7761 17.6823C77.7761 17.5 77.8282 17.3281 78.0417 16.8177C78.3021 16.2031 78.7292 15.3125 79.0469 14.6719C79.5104 13.724 80.25 12.2708 80.25 11.5469C80.25 10.8177 79.7865 10.2552 78.875 10.2552C77.849 10.2552 76.9167 10.8698 76.0625 11.7552L76.6198 10.4271H74.5209L72.7969 14.3177C72.1094 15.6875 70.7084 17.9531 69.8334 17.9531C69.6511 17.9531 69.5729 17.8437 69.5729 17.6615C69.5938 17.5 69.6302 17.3281 69.7032 17.1771C69.7761 17.0156 70.7969 14.6302 70.7969 14.6302L72.6667 10.3958H70.3907L68.5886 14.5156C68.0313 15.7969 66.6198 17.9531 65.7084 17.9531C65.5469 17.974 65.4011 17.8542 65.3907 17.6927V17.625C65.3907 17.401 65.5625 17 65.6875 16.6979L66.6407 14.6302L68.599 10.3958H66.3438L65.9011 11.3542C65.5625 12 65.0052 12.7552 64.1146 12.7552C63.6875 12.7552 63.4844 12.5937 63.3854 12.4219C63.25 11 62.3386 10.2448 61 10.2448C59.1354 10.2448 57.8177 11.3333 56.9427 12.6615C56.3646 13.5781 55.9167 14.5677 55.6042 15.6094C54.8021 16.9167 53.974 17.9375 53.2917 17.9375C53.1198 17.9375 53.0104 17.8437 53.0104 17.625C53.0104 17.401 53.2292 16.9062 53.3021 16.7135L54.7709 13.6094C55.1771 12.651 55.4636 12.0156 55.4636 11.3906C55.4636 10.7292 54.9948 10.2448 54.2344 10.2448C53.1719 10.2448 52.0261 10.8594 51.1094 11.8594C51.1407 11.6979 51.1511 11.5365 51.1511 11.375C51.1511 10.6354 50.7761 10.2448 50.0157 10.2448C49.0521 10.2448 48.0469 10.8177 47.1354 11.8594L47.7344 10.4167H45.6875L43.9532 14.2969C43.1302 16.1302 41.8125 17.9375 41.0677 17.9375C40.9063 17.9375 40.7865 17.8437 40.7865 17.625C40.7865 17.2708 41.1823 16.401 41.3229 16.0521L43.6042 10.8906C43.7761 10.4948 42.6719 10.2656 41.2813 10.2656C39.8542 10.2656 38.3802 10.9687 37.2969 11.875C36.5365 12.5 35.9792 12.8229 35.6927 12.8229C35.6042 12.8437 35.5104 12.7865 35.4896 12.6927C35.4896 12.6823 35.4896 12.6719 35.4896 12.651C35.4896 12.3385 36.25 11.4531 36.25 10.7656C36.25 10.4531 36.0886 10.2552 35.6563 10.2552C34.8334 10.2552 33.8698 11.0312 33.1563 11.849L33.7552 10.4271H31.75L30.0157 14.3073C29.1927 16.1406 27.8334 18.0469 27.0938 18.0469C26.9219 18.0469 26.8177 17.9531 26.8177 17.7344C26.8177 17.3802 27.1927 16.5365 27.3959 16.0885L29.6875 10.9115C29.8646 10.5156 28.7552 10.2865 27.3698 10.2865C25.2969 10.2865 23.2917 11.6771 22.2344 13.099C21.0573 14.6302 20.2657 16.2604 20.2448 17.5937C20.2292 18.6615 20.7865 19.3281 21.9011 19.3281C23.1459 19.3281 24.1511 18.349 24.7292 17.6042C24.6979 17.7552 24.6719 17.8958 24.6615 18.0469C24.6615 18.7812 24.9532 19.3281 25.8646 19.3281C26.6667 19.3281 27.7344 18.6615 28.5834 17.6042L27.8855 19.1562H30.0677L32.2032 14.3281C32.9167 12.7552 33.7188 11.9375 33.9375 11.9375C33.9896 11.9271 34.0417 11.9583 34.0521 12.0104C34.0521 12.0156 34.0521 12.0156 34.0521 12.026C34.0521 12.1979 33.7188 12.6406 33.7188 13.0469C33.7188 13.4479 33.9375 13.7604 34.5365 13.7604C35.0052 13.7604 35.5209 13.5417 35.9896 13.25C34.8959 14.7292 34.1407 16.2812 34.1407 17.5521C34.1198 18.6198 34.6823 19.2865 35.7969 19.2865C36.974 19.2865 38.0677 18.1771 38.6667 17.4427C38.6459 17.6146 38.6355 17.7865 38.625 17.9531C38.625 18.6823 39.0313 19.2865 39.875 19.2865C40.8073 19.2865 41.5469 18.7135 42.4792 17.5833L41.7917 19.1354H44.0209L46.0729 14.526C46.9636 12.5312 48.1719 11.4531 48.7709 11.4531C48.9219 11.4323 49.0521 11.5469 49.0625 11.6979V11.7448C49.0417 11.9687 48.974 12.1875 48.8802 12.3906L45.9375 19.1354H48.2292L50.3229 14.4375C51.2136 12.4219 52.1979 11.4427 52.9479 11.4427C53.1719 11.4427 53.2604 11.5521 53.2604 11.7969C53.2396 12.0573 53.1719 12.3021 53.0573 12.5312L51.0521 16.7865C50.8698 17.1979 50.7552 17.6354 50.7136 18.0781C50.7136 18.724 51.0729 19.2969 52.0729 19.2969C53.3854 19.2969 54.3698 18.3177 55.4844 16.8594V17.1719C55.5729 18.3385 56.224 19.349 57.9584 19.349C60.0052 19.349 61.6615 17.9479 62.6667 15.7083C63.0417 14.9219 63.2917 14.0729 63.3959 13.2083C63.6198 13.3177 63.8698 13.3698 64.125 13.3594C64.4584 13.3594 64.7917 13.276 65.0886 13.1146L64.7344 13.875C64.3282 14.7187 63.8698 15.6667 63.5261 16.4635C63.3021 16.9375 63.1719 17.4427 63.1302 17.9635C63.1302 18.7604 63.5782 19.3385 64.4896 19.3385C65.4011 19.3385 66.6511 18.4896 67.5417 17.2812H67.5625C67.5 17.5312 67.474 17.7865 67.474 18.0365C67.474 18.7031 67.6771 19.3281 68.6094 19.3281C69.6927 19.3281 70.5261 18.5521 71.349 17.5729L70.6563 19.125H72.9063L74.7136 15.0521C75.7396 12.7656 76.7604 11.375 77.7084 11.375C77.8698 11.3646 78.0104 11.4844 78.0209 11.6562V11.7031C78.0209 12.099 77.4636 13.1458 76.9532 14.2031C76.4896 15.1615 76.1354 15.9115 75.8907 16.4844C75.6667 16.9687 75.5365 17.4896 75.4948 18.0156C75.4948 18.724 75.8907 19.2552 76.7604 19.2552C78.0625 19.2552 79.3907 17.9948 80.0886 17.0573C79.9271 17.5104 79.8438 17.9844 79.8282 18.4583C79.8282 19.75 80.6094 20.4062 81.7032 20.4062C82.4323 20.3958 83.1407 20.1615 83.7292 19.7396C84.5834 19.1458 85.2709 18.2604 85.849 17.4531L85.4532 17.0781C84.9167 17.8333 84.3177 18.5625 83.6979 19.0052C83.375 19.276 82.9688 19.4271 82.5417 19.4479C82.0782 19.4479 81.7813 19.2031 81.7813 18.6198C81.7813 18.0365 82.0573 17.2292 82.4948 16.1615C82.5157 16.1406 83.1198 14.7708 83.6979 13.4583C84.1875 12.349 84.6615 11.2812 84.7657 11.0625H86.2344L86.5313 10.3958H85.0782L86.4792 7.30208ZM22.9844 17.974C22.6719 17.974 22.448 17.8646 22.448 17.4635C22.4688 16.375 23.3802 14.4271 24.5157 12.875C25.3177 11.8073 26.3646 11.0104 27.4792 11.0104L26.0573 14.1458C24.9948 16.5156 23.849 17.974 22.9844 17.974ZM36.9115 17.974C36.599 17.974 36.375 17.8646 36.3542 17.4635C36.375 16.375 37.2865 14.4271 38.4219 12.875C39.224 11.8073 40.2709 11.0104 41.3854 11.0104L39.9636 14.1562C38.8802 16.5625 37.7865 17.974 36.9115 17.974ZM61.6302 11.8594C61.5782 13.0573 60.5157 15.9583 59.2657 17.7031C58.7709 18.4115 58.3334 18.6094 57.9688 18.6094C57.4532 18.6094 57.2969 18.1875 57.3698 17.5521C57.4792 16.4635 58.3959 13.9115 59.6615 12.151C60.2396 11.3542 60.625 11.0208 61.0729 11.0208C61.5157 11.0208 61.6511 11.3906 61.6302 11.8594ZM96.3698 10.4271L98.4167 5.72917H95.9948L93.9427 10.4271H88.7917L87.9323 12.401H93.0938L91.0417 17.099H93.4688L95.5157 12.401H100.672L101.531 10.4271H96.3698Z" fill="white"/>
</g>
</svg>
