<?xml version="1.0" encoding="UTF-8" standalone="no"?>
<!DOCTYPE svg PUBLIC "-//W3C//DTD SVG 1.1//EN" "http://www.w3.org/Graphics/SVG/1.1/DTD/svg11.dtd">
<svg width="100%" height="100%" viewBox="0 0 1000 130" version="1.1" xmlns="http://www.w3.org/2000/svg" xmlns:xlink="http://www.w3.org/1999/xlink" xml:space="preserve" xmlns:serif="http://www.serif.com/" style="fill-rule:evenodd;clip-rule:evenodd;stroke-linejoin:round;stroke-miterlimit:2;">
    <g transform="matrix(1,0,0,1,0,-435.2)">
        <path d="M812.6,472.1C810.4,452 785.2,453.5 780.4,453.5L770.3,453.5L770.3,495C774.6,495.2 777.9,495.2 782.2,495.2C787.3,495.2 815.2,495.9 812.6,472.1ZM631.4,452.9C602.7,452.9 586.5,474.1 586.5,500C586.5,526.1 602.7,547.1 631.4,547.1C660.1,547.1 676.3,525.9 676.3,500C676.3,473.9 659.9,452.9 631.4,452.9ZM305.1,454.2L294.3,454.2L294.3,498.5L307,498.5C318.4,498.5 341.8,497.4 340.5,475C339.7,452.1 310.1,454.2 305.1,454.2ZM944.3,458.3L924.9,519L964.8,518.8L944.5,458.3" style="fill:none;fill-rule:nonzero;"/>
    </g>
    <g transform="matrix(1,0,0,1,0,-435.2)">
        <path d="M493.4,487.3L430.6,487.3L430.6,439.1L411.6,439.1L411.6,561.5L430.6,561.5L430.6,503.5L493.4,503.5L493.4,561.5L512.2,561.5L512.2,439.1L493.4,439.1M308.1,438.7C301.2,438.5 287.2,438.5 274.8,438.5L274.8,561.4L294,561.4L294,514.8C298.8,514.8 308.7,514.4 316.7,514.2C327.9,514 357.1,508.4 356.9,474.7C357.2,436.7 315.1,438.7 308.1,438.7ZM307.1,498.5L294.4,498.5L294.4,454.2L305.2,454.2C310.2,454.2 339.7,452 340.6,474.9C341.8,497.4 318.5,498.5 307.1,498.5ZM130.9,438.5L131.1,561.4L208.2,561.4L208.2,545.4L150.3,545.4L150.3,503.7L191.3,503.7C191.3,500.2 191.1,495.1 191.3,488.4L150.3,488.4L150.3,454.9L208.2,454.9C208,445.2 208.2,438.5 208.2,438.5L130.9,438.5ZM18.8,468.5C18.8,448.4 45.4,447.6 61.1,460.5C66.5,445 66.9,443.9 66.9,443.9C21.1,421.9 0.2,451 0.2,469.6C0.2,514.1 63.3,504.6 54.2,535.9C51,547.3 30.7,553.8 7.3,539.6C5.6,544.4 2.8,550.2 0,556C30.9,572.2 71,564.4 72.3,531C74.1,489 18.8,492 18.8,468.5ZM829.2,473C826.4,436.5 791,439.3 783.2,438.9C776.7,438.7 762.9,438.5 751,438.5L751,561.2L770.2,561.2L770.2,509.6C776.7,509.6 778.8,509.6 788.6,509.2L823.6,561.2L846.9,561.2L808.2,506C818.6,502.2 830.7,493.3 829.2,473ZM782.1,495.2C777.8,495.2 774.5,495.2 770.2,495L770.2,453.5L780.3,453.5C785.1,453.5 810.3,452 812.5,472.1C815.2,495.9 787.3,495.2 782.1,495.2ZM955.9,438.7L933.7,438.7L893.5,561.6L912.5,561.6C918.5,539.4 920.5,533.1 920.5,533.1L970.2,532.9C976,549.3 980.3,561.8 980.3,561.8L1000,561.8L955.9,438.7ZM924.9,519L944.3,458.3L944.5,458.3L964.8,518.8L924.9,519ZM631.4,435.2C592.3,435.2 566.8,464.1 566.8,500C566.8,535.9 592.3,564.8 631.4,564.8C670.5,564.8 696,535.9 696,500C696,464.1 670.5,435.2 631.4,435.2ZM631.4,547.1C602.7,547.1 586.5,526.2 586.5,500C586.5,474.1 602.7,452.9 631.4,452.9C659.9,452.9 676.3,473.8 676.3,500C676.3,525.9 660.1,547.1 631.4,547.1Z" style="fill:white;fill-rule:nonzero;"/>
    </g>
</svg>
