<svg xmlns="http://www.w3.org/2000/svg" xmlns:xlink="http://www.w3.org/1999/xlink" xmlns:serif="http://www.serif.com/" width="100%" height="100%" viewBox="0 0 159 159" version="1.1" xml:space="preserve" style="fill-rule:evenodd;clip-rule:evenodd;stroke-linejoin:round;stroke-miterlimit:2;">
    <g transform="matrix(4.16667,0,0,4.16667,0,4.62593e-16)">
        <g id="Artboard1" transform="matrix(1.14726,0,0,1.03793,0,-0.386104)">
            <rect x="0" y="0.372" width="33.085" height="36.584" style="fill:none;"/>
            <g transform="matrix(0.143533,0,0,0.158653,2.74241,1.73797)">
                <g>
                    <clipPath id="_clip1">
                        <rect x="0" y="0" width="193" height="214"/>
                    </clipPath>
                    <g clip-path="url(#_clip1)">
                        <path d="M77.312,207.747C78.965,207.747 81.812,207.223 84.062,203.622C82.789,200.77 81.891,195.071 81.738,192.973C81.062,182.247 85.188,172.196 89.688,171.973C92.988,171.747 95.613,174.895 95.914,179.997C96.738,193.348 92.312,198.895 90.062,203.696C90.438,205.571 93.59,208.723 96.59,208.723C97.715,208.723 98.988,208.196 99.363,207.747C99.141,206.997 98.914,206.02 98.914,204.52C98.914,196.798 103.863,190.27 108.215,190.27C111.664,190.27 113.613,194.77 113.613,197.77C113.613,201.297 110.613,204.145 106.266,206.922C107.016,207.672 108.438,208.27 109.715,208.27C116.016,208.27 119.312,200.696 121.715,193.723C122.164,192.372 122.914,190.497 124.488,190.497C127.113,190.497 128.238,207.895 132.664,207.895C134.539,207.895 136.113,204.071 136.113,201.071C136.113,198.895 135.363,198.672 135.363,195.446C135.363,191.922 137.238,188.922 139.789,188.922C141.363,188.922 141.891,190.422 141.891,192.297C141.891,199.348 136.789,212.473 129.289,212.473C123.664,212.473 124.113,202.797 122.09,202.797C119.84,202.797 116.766,212.622 105.891,212.622C104.09,212.622 102.215,211.723 100.715,209.997C98.09,211.797 95.84,212.547 93.289,212.547C89.238,212.547 87.438,208.348 85.789,208.348C83.84,208.348 81.59,212.622 74.988,212.622C69.664,212.622 68.84,205.571 66.965,205.571C65.311,205.571 62.766,212.622 59.988,212.622C55.34,212.622 54.363,200.395 50.312,200.395C47.09,200.395 37.039,212.848 34.266,212.547C33.141,212.395 32.688,211.571 32.84,210.52C32.988,209.02 34.34,204.896 34.863,202.946C35.766,199.571 36.59,195.895 37.039,194.77C37.488,193.571 38.688,192.747 39.664,192.821C40.188,192.895 40.34,193.797 40.488,194.547C41.016,197.247 41.84,200.02 42.664,200.02C44.238,200.02 49.34,190.196 52.34,190.196C56.016,190.196 56.391,205.645 61.414,205.645C63.062,205.645 64.266,203.696 65.391,201.223C65.464,197.172 66.59,191.321 69.891,191.321C72.215,191.321 73.34,196.497 71.613,200.997C71.465,206.395 74.988,207.747 77.312,207.747ZM165.516,194.473C164.164,200.172 160.039,208.497 153.812,208.497C152.391,208.497 149.84,207.973 149.84,206.473C149.84,204.896 159.516,204.747 159.516,197.321C159.516,194.547 156.965,190.723 153.215,190.723C148.266,190.723 143.391,196.122 143.391,203.622C143.391,210.372 147.59,212.547 151.715,212.547C158.988,212.547 163.414,206.622 165.738,201.598C166.863,204.896 167.465,212.547 170.238,212.547C171.363,212.547 172.113,212.021 173.465,209.02C176.766,201.598 179.988,193.122 184.414,193.122C186.062,193.122 185.09,196.122 189.062,196.122C190.938,196.122 192.289,194.547 192.289,192.821C192.289,190.27 189.965,188.321 186.438,188.321C176.09,188.321 173.84,203.848 172.188,203.848C169.414,203.848 170.312,191.395 168.363,191.395C166.562,191.395 165.738,193.497 165.516,194.473ZM92.312,182.922C92.09,179.848 91.414,178.422 89.688,178.571C87.516,178.723 86.465,185.622 86.914,192.895C87.215,197.622 87.891,198.372 88.562,198.297C89.84,198.223 92.766,189.747 92.312,182.922ZM74.391,176.395C74.238,174.598 72.812,173.395 70.938,173.395C68.84,173.395 66.891,175.571 67.113,178.348C67.266,180.145 68.312,181.645 70.414,181.645C72.891,181.723 74.613,178.946 74.391,176.395ZM108.738,198.895C108.738,197.02 107.766,195.446 106.562,195.446C105.59,195.446 103.266,196.571 103.266,200.098C103.266,202.872 104.238,204.145 104.688,204.747C107.84,203.77 108.738,201.145 108.738,198.895ZM151.789,195.145C154.113,195.145 154.789,197.922 154.188,199.571C153.664,201.223 151.641,203.098 148.562,203.622C147.965,201.973 147.59,195.145 151.789,195.145ZM24.812,187.348C24.516,186.372 23.613,184.122 23.312,182.395C22.789,178.723 24.664,176.321 26.465,175.723C28.414,175.196 29.238,176.172 29.988,178.497C30.965,182.02 31.113,186.672 30.738,193.27C30.289,202.348 25.789,213.223 14.539,212.997C4.863,212.77 0.516,206.473 0.062,196.872C-0.16,192.372 0.141,187.797 2.016,181.422C2.988,177.973 3.891,176.77 6.965,176.098C9.363,175.645 9.141,178.196 8.613,181.196C7.414,187.797 6.812,191.02 7.266,198.52C7.715,206.473 11.312,209.547 15.289,209.547C21.215,209.696 23.914,204.672 24.965,197.547C26.09,191.848 25.414,189.071 24.812,187.348Z" style="fill-rule:nonzero;"/>
                        <path d="M154.863,43.872C155.613,49.422 164.016,56.922 166.34,56.77C167.84,56.622 168.438,49.497 168.438,43.872C168.438,40.645 168.59,38.172 166.938,37.571C164.238,43.047 157.188,44.098 154.863,43.872ZM155.391,41.473C161.465,41.473 167.016,36.598 167.016,32.321C167.016,30.297 166.039,28.723 163.641,28.422C164.016,28.946 164.238,29.321 164.238,30.297C164.238,33.52 159.363,37.122 154.039,37.122C152.09,37.122 151.488,38.473 151.488,39.145C151.488,40.723 153.062,41.473 155.391,41.473ZM154.113,34.797C153.289,34.797 152.09,34.797 151.488,33.52C150.965,32.473 151.113,30.747 150.141,29.997C151.113,30.297 152.164,30.297 152.988,30.297C155.613,30.297 158.164,28.497 160.113,28.497C161.391,28.497 161.766,29.321 161.766,30.145C161.766,32.696 156.516,34.797 154.113,34.797Z" style="fill-rule:nonzero;"/>
                        <path d="M23.238,80.696C25.188,80.696 24.812,68.547 28.039,68.547C28.789,68.547 29.016,69.297 29.016,70.27C29.016,73.047 27.664,77.098 27.664,79.27C27.664,80.395 27.965,80.77 28.488,80.77C29.914,80.77 32.312,67.348 34.715,67.348C35.465,67.348 35.84,68.098 35.84,68.848C35.84,71.622 32.237,79.723 32.237,81.974C32.237,82.349 32.39,82.646 32.612,82.646C34.113,82.646 37.039,76.348 37.938,73.196C38.465,71.547 39.141,70.645 39.812,70.645C40.414,70.645 40.938,71.321 40.938,72.672C40.938,75.821 38.016,83.247 35.465,88.27C33.516,92.02 30.438,97.571 30.438,100.723C30.438,102.297 30.738,103.946 32.988,105.895C29.238,105.672 27.738,105.297 26.312,102.372C20.09,114.821 37.863,113.622 31.789,124.645C30.664,122.696 21.891,120.598 21.891,109.047C21.891,99.071 30.664,93.223 30.664,89.02C30.664,88.196 30.363,87.52 29.613,86.848C27.664,85.196 27.59,83.849 26.09,83.849C24.965,83.849 23.613,86.395 25.039,88.723C25.488,89.473 25.938,89.922 25.938,90.672C25.938,92.321 23.391,96.672 21.59,96.672C19.789,96.672 18.363,92.172 18.363,84.896C18.363,78.446 19.789,71.997 21.664,71.997C22.188,71.997 22.34,72.372 22.34,72.821C22.34,73.571 22.113,75.071 22.113,77.696C22.039,80.473 22.641,80.696 23.238,80.696Z" style="fill-rule:nonzero;"/>
                        <path d="M38.09,97.872C40.562,97.872 42.59,96.071 42.59,92.02L42.59,86.02C42.59,83.771 42.738,81.145 44.312,79.348C44.164,80.098 44.164,80.922 44.164,81.672C44.164,86.696 46.938,90.145 46.938,95.02C46.938,96.821 46.414,97.797 44.988,97.797C43.641,97.797 43.789,96.598 43.488,96.598C43.266,96.598 42.891,97.348 42.891,98.172C42.891,99.372 43.789,101.321 46.188,101.321C48.289,101.321 50.016,99.372 50.016,97.196C50.016,91.946 45.891,86.098 45.891,80.473C45.891,77.997 46.562,76.348 47.09,75.071C47.09,86.696 56.988,95.172 56.988,100.047C56.988,101.172 56.164,102.071 54.965,102.071C53.613,102.071 52.938,101.02 52.938,100.196C52.938,99.821 52.863,99.672 52.715,99.672C52.34,99.672 51.289,100.872 51.289,102.372C51.289,104.321 52.863,106.645 55.789,106.645C59.09,106.645 60.965,103.872 60.965,101.321C60.965,95.172 48.965,85.872 48.965,75.895C48.965,74.172 49.266,71.473 50.465,69.372C42.738,74.321 40.34,80.922 40.34,86.77C40.34,91.797 40.188,94.348 37.562,94.348C36.215,94.348 35.84,93.145 35.391,93.145C35.016,93.145 34.863,94.196 34.863,94.497C34.938,96.598 36.516,97.872 38.09,97.872Z" style="fill-rule:nonzero;"/>
                        <path d="M139.488,39.372C142.039,39.372 143.988,38.172 143.988,37.497C143.988,37.27 143.613,37.122 142.863,37.122C142.113,37.122 140.613,37.047 137.688,36.598C135.215,36.223 133.34,35.247 132.664,35.247C132.438,35.247 132.289,35.395 132.289,35.547C132.363,37.047 135.215,39.372 139.488,39.372ZM126.738,31.946C127.488,31.422 130.789,32.247 135.062,30.145C135.59,29.848 136.113,29.77 136.562,29.77C138.59,29.77 138.062,32.098 139.938,32.098C141.363,32.098 143.238,30.895 144.363,30.895C146.09,30.895 148.641,36.372 148.641,38.997C148.641,41.997 144.141,43.797 138.812,43.797C131.016,43.797 126.363,37.047 126.363,32.622C126.438,32.172 126.59,32.098 126.738,31.946Z" style="fill-rule:nonzero;"/>
                        <path d="M39.363,119.922C37.414,120.372 34.34,123.446 34.34,128.247C34.34,133.946 40.488,142.797 50.613,142.797C59.164,142.797 61.266,136.872 61.266,132.895C61.266,124.047 55.863,117.821 48.738,117.821C44.914,117.821 41.391,120.598 41.391,124.797C41.391,128.696 44.312,134.473 51.289,134.473C54.59,134.473 56.465,132.145 56.465,129.446C56.465,126.821 54.062,123.223 50.539,123.223C49.488,123.223 48.738,123.895 48.738,125.02C48.738,126.446 50.688,127.797 53.09,127.797C53.688,127.797 54.141,127.645 54.363,127.571C54.516,127.723 54.516,128.02 54.516,128.247C54.516,129.598 53.238,130.422 51.215,130.422C48.215,130.422 45.363,128.172 45.363,124.645C45.363,122.547 47.164,121.047 49.789,121.047C54.965,121.047 58.113,125.696 58.113,130.27C58.113,134.395 55.863,136.797 51.141,136.797C41.84,136.872 37.34,128.473 39.363,119.922Z" style="fill-rule:nonzero;"/>
                        <path d="M101.613,142.497C101.613,143.77 102.664,144.821 103.938,144.821C105.215,144.821 106.266,143.77 106.266,142.497C106.266,141.223 105.215,140.172 103.938,140.172C102.664,140.172 101.613,141.223 101.613,142.497ZM106.113,154.196C108.891,154.196 108.738,153.973 109.641,153.973C110.539,153.973 110.539,154.497 110.539,154.872C110.539,156.145 107.688,157.723 102.59,157.723C99.59,157.723 97.789,156.145 97.266,154.348C94.34,156.223 89.914,157.946 85.488,157.946C73.488,157.946 70.488,152.77 66.738,151.047C63.891,149.77 59.465,152.247 53.312,145.422C54.141,145.571 55.266,145.645 56.09,145.645C61.488,145.645 64.339,143.02 64.339,138.821C64.339,138.297 64.266,137.696 64.188,137.172C65.84,137.848 69.59,140.622 70.488,145.571C70.641,146.172 73.039,146.696 74.539,146.696C76.641,146.696 79.34,145.797 79.715,142.348C86.766,141.747 91.488,137.622 92.465,132.372C94.938,133.196 97.863,135.446 98.539,136.645C99.516,136.27 100.715,136.122 102.062,136.122C103.938,136.122 106.039,136.497 108.59,137.247C108.738,136.497 108.812,135.52 110.016,135.52C111.738,135.52 111.289,137.473 111.891,138.598C112.188,139.196 113.613,139.497 113.613,140.696C113.613,141.821 112.641,142.196 112.113,142.196C111.891,142.196 111.59,142.122 111.438,142.047C110.238,142.422 110.238,150.895 105.289,150.895C101.688,150.895 98.312,147.895 96.891,144.145C96.516,143.02 95.613,142.348 94.789,142.348C93.891,142.348 93.363,142.497 92.238,143.77C89.09,147.223 83.84,150.223 77.312,150.223C75.289,150.223 73.715,150.071 73.34,150.071C73.113,150.071 73.113,150.145 73.113,150.223C73.113,150.598 75.141,152.247 79.414,152.247C89.688,152.247 92.238,146.473 93.891,146.473C94.113,146.473 94.789,146.473 95.238,147.372C97.641,152.922 102.891,154.196 106.113,154.196Z" style="fill-rule:nonzero;"/>
                        <path d="M141.59,116.922C140.391,116.922 133.562,125.997 129.215,125.997C128.164,125.997 127.266,123.973 127.266,122.473C127.266,121.645 127.789,121.047 129.664,120.672C139.715,118.422 137.465,110.848 146.09,110.848C150.812,110.848 156.062,114.071 156.062,121.348C156.062,129.071 145.039,138.672 143.465,138.672C142.113,138.672 140.688,136.723 140.688,135.446C140.688,135.071 140.84,134.547 142.039,134.02C147.664,131.77 150.891,126.672 150.891,124.047C150.891,123.446 150.59,122.848 149.84,122.848C148.863,122.848 144.59,132.52 139.863,132.52C136.562,132.52 133.266,129.52 133.266,128.172C133.266,125.848 142.715,121.497 142.715,118.196C142.641,116.997 142.113,116.922 141.59,116.922ZM147.965,113.321C147.141,113.321 146.238,113.997 146.238,115.571C146.238,117.297 147.59,118.422 148.34,118.797C148.715,119.02 149.391,119.247 150.062,119.247C151.789,119.247 153.141,118.797 153.141,117.372C153.062,115.497 150.438,113.321 147.965,113.321Z" style="fill-rule:nonzero;"/>
                        <path d="M38.613,45.52C38.613,46.797 39.664,47.848 40.938,47.848C42.215,47.848 43.266,46.797 43.266,45.52C43.266,44.247 42.215,43.196 40.938,43.196C39.738,43.196 38.613,44.247 38.613,45.52ZM35.613,40.27C35.613,41.547 36.664,42.598 37.938,42.598C39.215,42.598 40.266,41.547 40.266,40.27C40.266,38.997 39.215,37.946 37.938,37.946C36.664,37.946 35.613,38.997 35.613,40.27ZM33.516,56.321C32.164,56.696 29.391,58.348 29.391,61.27C29.391,63.372 31.039,64.723 33.062,64.723C34.113,64.723 34.863,64.497 35.312,64.122C33.664,62.547 33.062,60.821 33.062,59.02C33.062,57.747 33.289,56.997 33.516,56.321ZM19.188,57.145C19.113,57.446 19.113,57.747 19.113,58.047C19.113,60.821 20.539,62.321 22.488,62.321C23.914,62.321 25.641,61.422 27.141,59.547C26.465,59.696 25.715,59.696 25.039,59.696C22.938,59.622 20.539,59.02 19.188,57.145ZM17.09,62.321C17.09,66.747 18.438,68.848 20.84,68.848C22.715,68.848 25.188,67.497 28.188,64.946C25.938,65.473 24.141,65.848 22.562,65.848C20.539,65.848 18.891,65.02 17.09,62.321ZM32.237,38.922C32.539,38.02 32.765,36.821 32.765,35.547C32.765,32.77 31.488,28.497 27.516,28.497C25.266,28.497 23.613,30.297 23.613,32.473C23.613,37.047 28.266,38.922 32.237,38.922ZM27.289,53.696C25.34,53.696 23.238,51.297 23.238,49.122C23.238,47.922 24.141,46.497 24.738,46.497C24.965,46.497 25.113,46.645 25.113,47.098C25.488,49.946 27.363,51.598 29.09,52.422C29.238,52.571 29.391,52.571 29.391,52.723C29.465,53.098 28.34,53.696 27.289,53.696ZM32.688,46.497C33.062,47.02 34.188,47.696 34.188,48.145C34.188,48.973 33.738,50.02 32.765,50.02C30.738,50.02 29.09,46.946 29.09,45.145C29.09,44.02 29.766,43.946 30.59,43.946C30.965,43.946 31.188,44.02 31.488,44.172C32.015,44.473 32.015,45.672 32.688,46.497ZM18.965,53.77C18.891,53.922 18.812,54.145 18.812,54.446C18.812,54.973 19.414,55.571 19.938,55.571C20.391,55.571 20.688,55.422 20.914,55.422C22.34,55.422 23.914,56.395 26.164,56.395C27.516,56.395 29.09,56.02 31.113,54.973C35.312,52.872 36.965,47.622 36.965,46.797C36.965,45.672 36.062,45.821 35.312,44.77C34.562,43.723 34.863,42.821 34.414,42.372C34.113,42.071 33.289,42.071 32.237,41.997C31.863,41.922 31.414,41.922 30.965,41.922C29.016,41.922 26.766,42.145 24.215,43.797C19.039,47.098 19.715,52.422 18.965,53.77ZM38.391,51.446C37.113,52.946 35.766,55.571 35.766,58.196C35.766,61.348 37.715,63.973 40.715,63.973C43.562,63.973 44.914,61.497 44.914,59.02C44.84,55.047 41.312,52.348 38.391,51.446ZM25.863,40.196C25.863,40.196 24.141,41.473 22.039,41.473C19.488,41.473 17.539,39.598 17.539,36.973C17.539,35.172 18.438,33.297 20.613,32.321C20.539,32.696 20.539,32.997 20.539,33.297C20.539,36.672 22.414,39.223 25.863,40.196Z" style="fill-rule:nonzero;"/>
                        <path d="M128.988,59.622C128.988,60.973 130.113,62.098 131.465,62.098C132.812,62.098 133.938,60.973 133.938,59.622C133.938,58.27 132.812,57.145 131.465,57.145C130.113,57.145 128.988,58.27 128.988,59.622ZM129.141,66.973C129.141,68.473 130.34,69.747 131.914,69.747C133.414,69.747 134.688,68.547 134.688,66.973C134.688,65.473 133.488,64.196 131.914,64.196C130.414,64.27 129.141,65.473 129.141,66.973ZM120.738,71.997C120.738,74.247 122.539,76.047 124.789,76.047C127.039,76.047 128.84,74.247 128.84,71.997C128.84,69.747 127.039,67.946 124.789,67.946C122.539,67.946 120.738,69.747 120.738,71.997ZM122.914,63.747C122.914,65.02 123.965,66.071 125.238,66.071C126.516,66.071 127.562,65.02 127.562,63.747C127.562,62.473 126.516,61.422 125.238,61.422C123.965,61.422 122.914,62.473 122.914,63.747ZM115.266,68.395C115.266,69.672 116.312,70.723 117.59,70.723C118.863,70.723 119.914,69.672 119.914,68.395C119.914,67.122 118.863,66.071 117.59,66.071C116.312,66.071 115.266,67.122 115.266,68.395ZM121.266,54.747C121.266,56.77 122.988,58.497 125.016,58.497C127.039,58.497 128.766,56.77 128.766,54.747C128.766,52.723 127.039,50.997 125.016,50.997C122.988,50.997 121.266,52.645 121.266,54.747ZM125.613,47.547C125.613,48.747 126.59,49.797 127.863,49.797C129.062,49.797 130.113,48.821 130.113,47.547C130.113,46.348 129.141,45.297 127.863,45.297C126.664,45.297 125.613,46.27 125.613,47.547ZM115.039,53.172C115.039,54.372 116.016,55.422 117.215,55.422C118.414,55.422 119.465,54.446 119.465,53.172C119.465,51.973 118.488,50.922 117.215,50.922C116.09,50.922 115.039,51.895 115.039,53.172ZM114.738,60.747C114.738,62.77 116.312,64.348 118.266,64.348C120.289,64.348 121.863,62.77 121.863,60.747C121.863,58.723 120.289,57.145 118.266,57.145C116.312,57.145 114.738,58.723 114.738,60.747ZM107.391,64.497C107.391,66.297 108.891,67.797 110.688,67.797C112.488,67.797 113.988,66.297 113.988,64.497C113.988,62.696 112.488,61.196 110.688,61.196C108.891,61.122 107.391,62.696 107.391,64.497ZM109.414,56.247C109.414,57.52 110.465,58.571 111.738,58.571C113.016,58.571 114.062,57.52 114.062,56.247C114.062,54.973 113.016,53.922 111.738,53.922C110.465,53.922 109.414,54.973 109.414,56.247ZM129.891,74.247C129.891,73.047 130.938,72.071 132.062,72.071C133.34,72.071 134.312,73.047 134.312,74.247C134.312,75.598 133.34,76.497 132.062,76.497C131.016,76.571 129.891,75.598 129.891,74.247Z" style="fill-rule:nonzero;"/>
                        <path d="M131.465,141.52C131.766,141.52 132.141,141.672 132.141,142.723C132.141,143.997 131.539,145.723 129.438,147.071C127.938,148.047 125.988,148.872 123.062,148.946C123.516,147.52 123.891,146.098 123.891,144.672C123.891,144.223 123.812,143.848 123.738,143.321L124.488,143.321C129.141,143.395 131.09,141.52 131.465,141.52ZM131.914,135.747C132.363,135.372 132.516,134.696 132.516,134.02L132.516,132.672C132.516,130.946 129.965,129.973 126.438,129.973C122.164,129.973 119.914,131.922 119.914,132.747L119.914,135.446C119.914,136.571 122.465,137.696 125.688,137.696C128.09,137.696 130.414,137.02 131.914,135.747ZM134.914,136.422C133.414,137.622 129.812,140.247 123.891,140.247C120.738,140.247 119.312,139.27 118.863,139.27C118.266,139.27 117.664,139.872 116.988,140.622C115.562,142.27 113.766,145.27 113.766,148.645C113.766,150.973 115.562,153.297 118.938,153.297C129.891,153.297 138.062,146.473 138.062,140.922C138.141,137.696 136.266,136.422 134.914,136.422Z" style="fill-rule:nonzero;"/>
                        <path d="M137.016,87.223C137.016,88.645 137.465,90.372 138.965,90.372C140.164,90.372 141.215,88.497 141.215,86.473C141.215,84.146 140.84,82.349 140.84,81.372C140.84,80.997 140.988,80.77 141.215,80.77C142.113,80.848 142.938,83.247 143.84,83.247C144.891,83.247 146.465,81.297 147.141,81.297C147.289,81.297 147.363,81.52 147.363,81.598C147.363,82.497 146.016,84.446 146.016,85.196C146.016,85.872 149.391,85.946 149.391,86.547C149.391,87.446 145.863,87.446 144.141,88.196C142.488,88.872 141.516,89.77 141.516,90.973C141.516,92.172 142.715,92.395 144.363,92.395C148.266,92.395 151.039,90.297 151.863,90.297C152.016,90.297 152.164,90.446 152.164,90.598C152.164,91.196 150.141,93.145 150.141,93.973C150.141,94.946 153.738,96.145 153.738,96.747C153.664,96.895 153.438,96.973 153.062,96.973C152.391,96.973 151.414,96.821 150.664,96.821C150.215,96.821 149.766,96.895 149.613,97.122C149.238,97.571 149.766,100.723 148.938,100.723C148.188,100.723 146.164,93.821 141.664,93.821C140.988,93.821 140.539,94.348 140.539,95.247C140.539,97.571 142.789,100.27 144.965,101.547C145.938,102.223 147.59,102.821 147.59,103.196C147.59,103.872 143.84,103.27 143.84,104.395C143.84,105.446 144.289,107.02 144.289,107.997C144.289,108.297 144.215,108.672 143.914,108.672C143.238,108.672 141.516,105.446 140.688,105.446C140.016,105.446 138.438,107.395 137.84,107.395C137.688,107.395 137.539,107.247 137.539,107.02C137.539,105.672 139.715,102.598 139.715,99.672C139.715,98.247 139.562,95.247 137.84,95.247C136.414,95.247 134.84,97.497 134.164,99.672C133.789,100.946 134.016,105.895 133.113,105.895C132.215,105.895 132.438,102.598 131.312,102.598C130.414,102.598 128.613,104.172 127.938,104.172C127.789,104.172 127.715,104.098 127.715,104.02C127.715,103.348 129.438,101.02 129.438,100.571C129.438,99.672 125.539,99.598 125.539,98.848C125.539,98.473 127.039,98.172 128.465,97.946C131.465,97.422 135.812,95.247 135.812,92.247C135.812,88.872 132.516,87.372 130.414,86.02C129.289,85.348 128.09,84.747 128.09,84.297C128.09,83.849 129.516,83.849 130.113,83.849C131.016,83.849 131.84,83.771 131.84,83.099C131.84,82.571 131.688,81.52 131.688,80.696C131.688,80.098 131.766,79.645 131.988,79.645C132.891,79.645 134.09,82.497 134.688,82.497C135.59,82.497 136.938,80.172 137.766,80.172C138.062,80.172 138.141,80.321 138.141,80.848C138.141,82.646 137.016,85.047 137.016,87.223ZM109.113,70.047C109.789,74.997 116.465,72.52 116.465,78.52C116.465,79.422 116.238,80.696 116.238,81.821C116.238,83.099 116.391,84.224 117.363,84.224C118.34,84.224 118.562,83.547 118.562,82.571C118.562,81.672 118.34,80.473 118.34,79.797C118.34,77.77 119.84,77.247 120.664,77.247C122.914,77.247 124.562,79.497 127.938,79.497C127.188,83.247 119.465,82.271 119.465,86.321C119.465,88.348 121.488,88.872 122.84,88.872C124.039,88.872 124.488,88.723 124.488,87.672C124.488,87.071 124.34,86.473 124.34,86.02C124.34,85.797 124.488,85.571 124.789,85.571C126.062,85.571 132.363,90.372 132.363,91.872C132.363,93.223 125.688,94.571 123.738,94.571C123.141,94.571 123.062,94.196 123.062,93.895C123.062,93.52 124.039,92.247 124.039,91.571C124.039,91.047 123.141,90.672 120.812,90.672C119.688,90.672 118.863,90.821 118.863,91.645C118.863,93.223 121.414,95.172 121.414,96.598C121.414,97.797 120.738,98.473 118.863,98.473C117.289,98.473 114.891,97.27 114.891,95.172C114.891,93.52 116.539,91.872 116.539,90.895C116.539,90.598 116.312,90.145 115.641,90.145C113.465,90.145 112.863,95.848 105.215,96.52C106.414,95.395 107.465,94.196 107.465,91.645C107.465,90.446 107.164,89.395 107.164,88.047C107.164,86.321 107.988,85.422 109.188,85.422C111.363,85.422 112.414,88.497 113.84,88.497C114.59,88.497 115.414,87.821 115.414,86.77C115.414,82.349 106.863,82.946 106.863,76.723C106.938,75.071 107.539,72.973 109.113,70.047Z" style="fill-rule:nonzero;"/>
                        <path d="M120.215,108.071C120.215,108.895 120.812,109.497 121.641,109.497C122.539,109.497 123.141,108.672 123.141,107.77C123.141,106.571 122.016,104.848 120.965,104.848C120.516,104.848 120.664,105.52 120.59,106.348C120.516,106.872 120.215,107.622 120.215,108.071ZM117.141,100.27C123.289,101.473 126.59,106.047 126.59,110.395C126.59,113.395 124.715,116.098 121.414,116.098C118.414,116.098 116.238,114.071 116.238,110.77C116.238,108.297 118.188,105.747 118.188,103.196C118.266,102.297 117.965,101.321 117.141,100.27ZM109.414,110.247C110.016,110.848 110.164,111.446 110.164,111.973C110.164,112.872 109.789,113.77 109.789,114.747C109.789,116.172 110.84,117.372 112.34,117.372C113.988,117.372 115.113,116.098 115.113,114.598C115.039,112.422 112.789,110.247 109.414,110.247ZM128.766,106.497C129.141,107.172 129.363,107.77 129.363,108.372C129.363,110.02 128.238,111.52 128.238,113.247C128.238,115.196 129.738,116.77 131.914,116.77C134.312,116.77 135.965,114.821 135.965,112.571C135.965,109.422 133.113,106.797 128.766,106.497ZM110.766,103.422C113.465,103.797 114.141,104.696 114.141,105.446C114.141,106.723 112.938,107.172 111.812,107.172C110.988,107.172 110.09,107.02 109.039,107.02C107.766,107.02 106.488,107.321 105.438,108.52C106.188,108.672 107.312,109.196 107.312,110.321C107.312,113.696 97.863,110.922 97.863,119.622C97.863,124.27 102.664,129.297 109.938,129.297C113.688,129.297 116.09,128.098 116.09,126.672C116.09,125.547 114.062,126.297 114.062,125.395C114.062,125.02 114.738,124.196 114.738,123.598C114.738,123.297 114.516,122.77 114.062,122.77C113.016,122.77 110.988,124.497 107.016,124.497C103.863,124.497 100.789,122.696 100.789,120.223C100.789,119.696 101.016,119.395 101.391,119.395C101.766,119.395 102.215,119.622 102.59,119.622C102.965,119.622 102.965,119.395 102.965,118.723C102.965,118.047 102.965,116.247 104.09,116.247C105.215,116.247 107.312,120.372 115.414,120.372C118.113,120.372 123.289,119.848 125.238,118.122C125.164,124.571 120.141,133.047 109.641,133.047C98.688,133.047 92.84,124.27 92.84,116.172C92.84,107.247 100.113,99.071 110.164,99.071C112.715,99.071 114.891,99.973 114.891,101.02C114.891,102.52 111.062,101.547 110.766,103.422Z" style="fill-rule:nonzero;"/>
                        <path d="M72.965,36.598C76.789,36.598 78.59,39.895 78.59,43.645C78.59,45.297 78.141,47.696 77.391,47.696C76.641,47.696 76.715,46.348 76.641,45.145C76.488,43.571 76.266,43.196 75.738,43.196C74.766,43.196 74.09,45.52 74.09,47.696C74.09,49.047 74.312,50.547 75.363,50.547C75.965,50.547 76.488,50.247 76.863,49.872C76.641,52.571 74.613,54.895 71.84,54.895C66.664,54.895 64.789,48.895 64.188,45.372C61.113,48.672 58.188,51.071 53.09,51.071C48.289,51.071 46.113,47.547 46.113,44.247C46.113,43.27 46.488,40.645 47.688,40.645C49.113,40.645 47.84,45.446 50.766,45.446C51.438,45.446 52.789,44.848 53.465,42.895C53.84,41.696 54.141,40.497 54.141,39.446C54.141,37.872 53.766,36.895 52.641,36.895C51.664,36.895 50.391,37.645 50.016,38.098C51.438,33.895 54.812,31.723 58.562,31.723C63.215,31.723 65.613,35.848 65.613,40.348C65.613,41.02 65.539,41.696 65.464,42.372C67.188,39.071 69.965,36.598 72.965,36.598ZM68.465,43.497C68.465,42.52 68.238,42.297 68.016,42.297C67.414,42.297 66.812,42.973 65.84,44.547C65.988,46.645 66.289,47.622 66.891,47.622C67.488,47.547 68.465,45.52 68.465,43.497ZM60.438,45.895C61.113,45.895 61.938,45.223 63.438,43.497C63.59,42.747 63.59,41.997 63.59,41.172C63.59,39.973 63.141,38.696 62.391,38.696C60.664,38.696 59.766,43.348 59.766,44.622C59.688,45.297 60.062,45.895 60.438,45.895ZM69.965,51.071C71.391,51.071 73.039,45.446 73.039,41.922C73.039,41.172 72.891,40.348 72.59,40.348C71.391,40.348 69.289,46.122 69.289,49.27C69.289,50.547 69.59,51.071 69.965,51.071ZM55.641,47.848C57.664,47.848 59.914,37.047 59.914,35.247C59.914,34.797 59.766,34.422 59.312,34.422C57.516,34.422 54.965,44.696 54.965,46.946C54.965,47.395 55.113,47.848 55.641,47.848Z" style="fill-rule:nonzero;"/>
                        <path d="M62.016,52.348C59.465,52.348 59.391,55.422 59.391,61.497C57.516,57.446 54.438,53.098 50.766,53.098C48.289,53.098 47.391,54.747 47.391,57.598C47.391,58.196 47.465,59.098 47.539,59.622C47.84,58.645 48.738,58.196 49.938,58.196C52.488,58.196 55.488,60.145 57.516,62.77C55.266,62.395 53.016,61.946 51.141,61.946C49.938,61.946 48.891,62.098 48.062,62.473C46.34,63.223 44.09,65.77 44.09,69.52C44.09,70.122 44.164,70.723 44.238,71.473C46.266,66.895 51.738,64.872 55.266,64.872C55.938,64.872 56.465,64.946 56.914,65.02C55.113,66.672 54.664,69.52 54.59,71.473C54.516,72.372 54.215,72.446 53.539,72.446C53.539,74.395 55.039,77.247 55.039,78.672C55.039,79.196 54.738,79.645 54.438,79.797C54.438,82.349 56.988,84.224 56.988,85.872C56.988,86.247 56.84,86.622 56.688,86.77C56.84,87.821 59.688,89.622 60.062,90.446C60.516,91.497 61.039,91.723 61.34,91.723C62.312,91.723 63.891,90.52 63.891,89.473C63.891,89.098 63.59,88.723 63.363,88.571C62.238,87.747 61.641,86.02 61.188,84.821C60.812,84.821 60.215,84.672 60.062,83.997C59.766,82.797 59.766,80.547 59.238,79.196C58.488,79.047 58.113,78.747 58.113,77.172C58.113,76.422 58.562,73.422 58.562,72.372C58.188,72.372 57.738,72.145 57.738,71.473C57.738,69.598 59.613,68.172 60.141,65.77C63.438,68.247 64.266,70.723 64.266,72.973C64.266,74.172 64.113,75.223 63.891,76.27C66.363,75.071 70.039,73.196 70.039,69.52C70.039,67.348 69.062,64.946 62.465,64.047C64.488,63.297 67.113,62.848 69.215,62.848C72.965,62.848 75.141,64.047 75.59,66.672C76.34,65.473 76.938,64.122 76.938,62.922C76.938,60.071 74.539,58.196 71.465,58.196C67.863,58.196 64.714,60.071 61.34,62.321C62.84,59.172 63.891,57.297 65.766,57.297C66.062,57.297 66.363,57.372 66.664,57.446C66.062,54.821 63.363,52.348 62.016,52.348Z" style="fill-rule:nonzero;"/>
                        <path d="M160.562,94.497C163.488,94.497 165.812,98.321 165.812,102.747C165.812,107.473 163.562,112.645 159.59,116.172C159.516,108.297 149.84,110.77 149.84,105.071C149.84,102.598 151.562,100.946 153.738,100.946C155.613,100.946 157.039,101.473 158.164,102.52C157.113,101.547 156.59,100.122 156.59,98.77C156.59,96.52 158.016,94.497 160.562,94.497Z" style="fill-rule:nonzero;"/>
                        <path d="M117.141,34.645C116.688,33.895 114.891,33.446 114.141,33.446C111.59,33.446 109.789,35.247 109.488,36.895C109.266,36.297 109.113,35.622 109.113,34.872C109.113,32.321 110.84,29.172 115.113,29.172C118.863,29.172 120.289,31.122 120.812,31.122C121.414,31.122 122.016,30.52 122.465,30.52C123.141,30.52 123.141,31.497 123.141,32.247C123.141,34.571 122.09,38.622 119.465,40.122C119.016,39.145 118.039,38.02 116.539,37.348C116.164,37.196 115.938,36.821 115.938,36.446C115.863,35.848 116.465,35.02 117.141,34.645ZM108.363,38.922C109.863,40.422 111.215,41.02 112.863,41.02C113.539,41.02 114.289,40.872 114.664,40.872C115.188,40.872 115.562,41.098 115.562,41.547C115.562,42.223 114.965,43.27 114.289,43.797C114.965,44.098 115.789,44.172 116.539,44.172C119.84,44.172 123.664,42.071 123.664,36.821C124.34,37.723 124.789,39.672 124.789,40.571C124.789,46.946 120.141,49.422 115.789,49.422C112.938,49.422 111.59,48.52 111.215,48.52C110.09,48.52 110.164,50.77 109.414,50.696C108.062,50.473 106.863,47.473 106.863,44.321C106.789,42.372 107.312,40.422 108.363,38.922Z" style="fill-rule:nonzero;"/>
                        <path d="M58.266,1.723C58.266,1.348 56.539,1.047 54.141,1.047C50.312,1.047 50.84,4.196 47.914,4.196C44.84,4.196 45.664,0.895 41.766,0.895C39.438,0.895 37.266,1.27 37.266,1.797C37.266,2.473 40.039,2.172 40.039,4.122C40.039,6.145 34.113,6.747 34.113,7.946C34.113,8.321 34.562,8.547 35.164,8.547C36.438,8.547 38.465,7.946 39.965,7.946C40.789,7.946 41.539,8.098 41.539,8.848C41.539,10.348 38.391,12.973 38.391,14.098C38.391,14.473 38.688,14.547 38.988,14.547C40.188,14.547 42.141,11.547 44.016,11.547C47.09,11.547 45.062,18.145 46.789,18.145C48.516,18.145 47.766,11.622 50.312,11.622C52.34,11.622 53.914,16.122 55.266,16.122C55.641,16.122 55.938,15.821 55.938,15.446C55.938,14.247 54.215,11.696 54.215,10.047C54.215,9.071 54.891,8.547 55.863,8.547C57.215,8.547 59.016,9.372 59.988,9.372C60.363,9.372 60.664,9.223 60.664,8.848C60.664,7.422 55.488,5.922 55.488,4.122C55.414,2.547 58.266,2.547 58.266,1.723ZM71.988,7.645C71.988,8.696 75.664,10.946 77.391,10.946C78.363,10.946 78.664,9.598 78.664,8.172C78.664,6.446 77.914,6.372 76.414,6.372C74.465,6.446 71.988,6.973 71.988,7.645ZM78.062,19.27C78.062,15.747 68.539,9.372 68.465,6.672C68.465,6.446 68.613,6.145 68.84,5.922C70.488,4.196 77.238,2.922 77.238,1.497C77.238,0.747 75.812,0.747 75.141,0.747C69.664,0.747 61.715,2.77 61.715,4.645C61.715,6.672 68.84,11.473 68.84,13.872C68.84,14.547 68.465,14.77 67.789,14.77C65.84,14.77 61.488,12.372 59.391,12.372C58.488,12.372 58.113,13.047 58.113,13.946C58.113,16.723 61.414,22.047 61.414,23.622C61.414,23.77 61.34,23.997 61.113,23.997C60.062,23.997 55.113,18.145 53.312,18.145C52.641,18.145 52.641,19.047 52.641,20.321L52.641,22.348C52.641,23.696 52.562,24.52 51.965,24.52C50.465,24.52 49.715,20.247 48.289,20.247C46.789,20.247 46.488,27.821 44.988,27.821C43.266,27.821 44.766,19.422 43.113,19.422C41.312,19.422 39.289,24.973 37.938,24.973C37.488,24.973 37.34,24.52 37.34,24.071C37.34,22.348 38.312,19.645 38.312,17.997C38.312,17.172 38.09,16.723 37.414,16.723C35.613,16.723 31.641,19.645 30.062,19.645C29.84,19.645 29.539,19.497 29.539,19.27C29.539,17.848 35.914,13.422 35.914,11.395C35.914,9.446 27.141,10.723 27.141,8.547C27.141,6.672 33.438,4.723 33.438,2.848C33.438,1.122 26.016,0.372 23.164,0.372C19.715,0.372 17.84,0.747 17.84,1.797C17.84,3.297 25.715,3.821 25.715,5.098C25.715,6.372 17.613,9.821 17.613,11.848C17.613,13.571 29.09,11.997 29.09,13.797C29.09,15.821 19.113,24.372 19.113,27.223C19.113,27.895 19.562,28.122 20.238,28.122C23.312,28.122 31.188,22.348 33.363,22.348C34.113,22.348 34.188,23.247 34.188,24.071C34.188,25.571 33.664,27.895 33.664,29.622C33.664,30.973 34.039,31.872 35.164,31.872C37.34,31.872 39.289,28.196 40.789,28.196C42.664,28.196 41.539,38.997 44.391,38.997C46.789,38.997 47.766,27.297 49.266,27.297C50.766,27.297 52.039,30.672 53.391,30.672C55.113,30.672 54.289,24.747 56.164,24.747C58.188,24.747 64.039,31.797 66.664,31.797C67.488,31.797 67.789,31.122 67.789,30.297C67.789,27.223 63.438,20.172 63.438,17.922C63.438,17.321 63.59,17.172 64.266,17.172C66.516,17.172 73.188,20.321 76.34,20.321C77.465,20.622 78.062,20.02 78.062,19.27ZM24.664,15.895C24.664,17.098 20.238,20.997 18.664,20.997C18.062,20.997 17.914,20.321 17.914,19.645C17.914,18.446 18.438,16.872 19.113,16.348C19.863,15.672 21.664,15.297 22.938,15.297C23.766,15.223 24.664,15.372 24.664,15.895ZM67.641,21.895C67.641,23.922 74.988,33.973 76.34,33.973C77.539,33.973 78.363,31.946 78.363,30.145C78.363,29.696 78.215,29.247 77.988,28.872C76.938,27.372 69.516,21.52 67.863,21.52C67.789,21.52 67.641,21.747 67.641,21.895Z" style="fill-rule:nonzero;"/>
                        <path d="M161.613,4.196C161.613,5.02 162.289,5.622 163.113,5.622C163.938,5.622 164.613,4.946 164.613,4.196C164.613,3.372 163.938,2.696 163.113,2.696C162.289,2.696 161.613,3.372 161.613,4.196ZM152.09,17.098C152.09,12.973 142.113,11.922 142.113,10.946C142.113,10.196 147.664,8.922 150.516,8.848C146.09,3.223 139.863,3.821 139.863,2.848C139.863,2.247 144.516,1.122 148.863,1.122C152.465,1.122 155.914,1.946 155.914,4.723C155.914,6.223 154.715,7.797 154.715,10.196C154.715,11.473 155.391,12.598 157.039,12.598C158.84,12.598 159.289,10.645 159.289,8.622C159.289,6.895 158.988,5.622 158.988,4.797C158.988,2.321 160.641,0.672 163.039,0.672C165.062,0.672 165.516,1.571 168.438,1.571C166.863,2.547 166.266,4.196 166.266,5.02C166.266,7.497 167.84,9.145 167.84,14.172C167.84,23.395 159.215,26.696 148.562,26.696C145.641,26.696 142.562,26.473 139.488,26.02C139.039,25.946 138.891,25.872 138.891,25.571C138.891,24.821 143.016,24.372 143.016,20.622C143.016,19.122 142.562,17.77 142.562,17.247C142.562,16.946 142.789,16.797 143.016,16.797C143.914,16.797 145.641,20.172 148.938,20.172C149.914,20.098 152.09,19.797 152.09,17.098ZM161.988,11.172C161.988,16.348 158.164,20.321 151.34,21.446C152.09,21.52 152.84,21.52 153.516,21.52C161.539,21.52 164.465,17.922 164.465,14.848C164.465,13.196 163.488,11.696 161.988,11.172Z" style="fill-rule:nonzero;"/>
                        <path d="M157.938,86.622C158.84,83.696 160.039,81.672 161.988,78.52C160.039,77.547 154.938,75.446 154.938,71.997C154.938,67.946 159.965,64.797 161.016,64.797C161.465,64.797 161.613,65.172 161.613,65.997C161.613,68.098 160.641,71.473 160.641,73.348C160.641,74.997 161.688,76.571 162.664,76.571C163.641,76.571 166.414,73.047 166.414,69.598C166.414,63.372 160.938,61.497 159.289,61.497C157.715,61.497 154.863,64.047 148.113,64.047C135.516,64.047 132.664,51.598 132.664,46.122C132.664,45.895 132.738,45.821 132.812,45.821C133.113,45.821 134.312,47.321 138.289,47.321C140.312,47.321 142.188,46.797 145.188,46.797C152.164,46.797 155.312,51.672 159.664,57.821C162.289,59.473 168.59,62.098 168.59,69.52C168.59,76.047 161.613,79.723 159.965,86.696C162.664,86.395 164.238,81.598 167.016,81.598C168.438,81.598 169.039,82.724 169.039,84.446C169.039,86.997 167.539,90.895 164.766,93.297C164.84,93.071 164.84,92.77 164.84,92.395C164.84,90.747 164.164,88.422 162.289,88.422C159.363,88.422 158.465,91.571 156.812,94.196C155.09,88.196 152.84,82.872 148.715,79.571C144.59,76.27 137.391,78.071 137.391,71.997C137.391,70.348 138.438,68.02 138.438,66.145C138.438,65.473 138.289,64.946 137.988,64.422C143.613,66.52 141.59,70.27 145.113,74.098C147.289,76.571 153.215,78.895 156.664,89.02C156.738,88.723 156.812,87.973 156.812,87.446C156.812,78.821 145.34,70.27 144.363,66.821C151.039,67.571 152.164,69.223 155.391,77.997C155.84,79.872 157.938,84.372 157.938,86.622ZM156.438,58.196C156.438,56.997 153.363,56.848 153.062,53.395C152.988,52.872 152.84,51.973 152.164,51.973C151.113,51.973 151.938,55.196 150.738,55.196C148.039,55.196 147.141,49.946 146.164,49.946C145.938,49.946 145.641,50.098 145.641,50.848C145.641,51.52 145.789,51.895 145.789,52.645C145.789,53.395 145.641,53.922 144.891,53.922C143.312,53.922 141.891,50.247 140.539,50.247C140.238,50.247 139.938,50.395 139.938,50.696C139.938,51.372 141.141,52.723 141.141,53.321C141.141,54.747 137.312,53.997 137.312,55.122C137.312,55.645 137.84,55.797 138.516,55.797C139.715,55.797 141.664,55.27 142.641,55.27C143.238,55.27 144.141,55.422 144.141,56.172C144.141,56.997 142.039,58.047 142.039,58.797C142.039,59.172 142.414,59.321 142.715,59.321C144.289,59.321 147.062,56.547 149.09,56.547C149.465,56.547 150.289,56.696 150.289,57.223C150.289,57.973 148.34,59.321 148.34,60.446C148.34,60.747 148.488,61.122 148.863,61.122C149.914,61.122 151.34,58.348 153.289,58.348C154.039,58.348 155.164,58.645 155.766,58.645C156.215,58.723 156.438,58.422 156.438,58.196Z" style="fill-rule:nonzero;"/>
                        <path d="M112.863,23.172C113.84,23.172 113.988,25.422 114.141,26.77C114.289,27.446 114.363,27.52 114.664,27.52C115.34,27.52 116.465,24.821 117.215,24.821C118.34,24.821 121.34,27.895 126.289,27.895C133.34,27.895 140.016,22.946 140.016,14.172C140.016,5.696 134.016,0.747 125.766,0.747C121.863,0.747 118.938,2.696 117.438,2.696C116.539,2.77 115.113,0.446 114.438,0.446C114.141,0.446 113.84,1.047 113.84,2.02C113.84,2.696 113.84,4.723 113.164,4.723C111.738,4.723 106.34,0.672 106.34,2.172C106.34,3.52 109.938,7.645 109.938,8.696C109.938,9.747 106.34,10.723 106.34,11.473C106.34,12.747 110.164,12.973 110.164,14.622C110.164,16.27 106.188,17.547 106.188,18.747C106.188,19.723 110.164,19.047 110.164,20.247C110.164,21.446 107.238,25.571 107.238,26.77C107.238,27.071 107.312,27.071 107.539,27.071C108.664,26.997 112.039,23.172 112.863,23.172ZM114.516,13.571C114.516,12.895 112.266,11.696 112.266,11.02C112.266,10.872 112.414,10.872 112.562,10.872C113.238,10.872 114.289,11.098 115.188,11.098C115.938,11.098 116.09,7.797 116.613,7.797C116.988,7.797 117.738,10.872 118.34,10.872C119.09,10.872 120.516,9.973 121.113,9.973C121.266,9.973 121.34,10.047 121.34,10.122C121.34,10.497 119.84,12.071 119.84,12.598C119.84,13.122 123.141,13.797 123.141,14.247C123.141,14.848 119.766,14.77 119.766,15.297C119.766,15.672 120.965,17.321 120.965,17.848C120.965,17.997 120.891,17.997 120.812,17.997C120.363,17.997 118.562,17.172 118.039,17.172C117.363,17.172 116.391,19.571 115.789,19.571C115.641,19.571 115.488,19.348 115.488,19.047L115.34,16.723C115.34,16.497 115.188,16.27 114.965,16.27C114.289,16.27 112.938,16.196 112.488,16.196C112.188,16.196 112.113,16.122 112.113,16.047C112.188,15.672 114.516,14.02 114.516,13.571ZM125.914,24.672C121.789,24.672 119.09,22.645 119.09,21.598C119.09,21.071 119.465,20.696 119.914,20.696C121.188,20.696 124.039,22.645 124.938,22.645C125.164,22.645 125.312,22.497 125.312,22.196C125.312,21.145 124.34,19.422 124.34,18.52C124.34,18.297 124.488,18.145 124.863,18.145C126.438,18.145 128.766,18.821 130.039,18.821C130.414,18.821 130.562,18.598 130.562,18.372C130.562,17.098 126.738,14.547 126.738,13.797C126.738,13.122 131.465,12.071 131.465,10.946C131.465,9.747 125.016,10.571 125.016,9.446C125.016,8.622 126.215,7.196 126.215,6.598C126.215,6.297 125.988,6.223 125.539,6.223C125.016,6.223 122.164,7.348 121.039,7.348C120.438,7.348 119.766,7.196 119.766,6.446C119.766,5.098 122.016,3.672 125.613,3.672C131.391,3.672 134.84,7.645 134.84,14.321C134.988,22.571 129.141,24.672 125.914,24.672Z" style="fill-rule:nonzero;"/>
                        <path d="M86.312,125.922C86.312,126.446 86.164,127.047 85.641,127.645C84.965,126.446 83.164,125.922 82.34,125.922C76.34,125.922 78.59,134.622 72.141,134.622C69.438,134.622 69.215,134.247 68.238,134.247C67.863,134.247 67.562,134.395 67.562,134.77C67.562,136.27 69.738,140.02 75.738,140.02C81.738,140.02 87.59,136.348 87.59,131.77C87.59,131.02 87.438,130.196 87.062,129.372C87.289,128.997 87.891,128.77 88.414,128.77C89.312,128.77 89.84,129.821 90.738,129.821C91.641,129.821 92.391,129.145 92.391,128.172C92.391,127.422 92.016,126.895 91.266,126.52C91.715,126.145 92.09,125.622 92.09,124.946C92.09,123.973 91.414,122.997 90.215,122.997C89.688,122.997 89.312,123.145 88.938,123.598C88.789,122.547 88.266,121.571 87.141,121.571C86.238,121.571 85.641,122.247 85.641,123.223C85.715,124.196 86.312,124.946 86.312,125.922Z" style="fill-rule:nonzero;"/>
                        <path d="M70.562,128.172C68.84,128.172 66.141,126.297 66.141,125.247C66.141,124.348 66.965,123.895 67.562,123.895C69.062,123.895 71.688,125.696 71.688,127.196C71.766,127.645 71.465,128.172 70.562,128.172ZM54.289,115.047C58.938,116.247 61.34,118.723 61.789,121.723C62.238,124.571 62.84,126.895 63.965,128.098C65.464,129.747 68.312,131.172 70.789,131.172C72.891,131.172 74.613,130.497 74.613,128.547C74.613,126.446 71.766,121.723 67.562,121.723C67.188,121.723 66.664,121.797 66.062,121.797C65.539,121.797 64.789,121.645 64.339,121.27C63.438,120.446 63.141,116.098 61.34,113.395C59.391,110.473 57.289,109.645 54.438,109.645C52.414,109.645 50.09,110.77 50.09,112.422C50.016,113.395 50.539,114.071 54.289,115.047Z" style="fill-rule:nonzero;"/>
                        <path d="M83.613,107.922C83.613,105.297 78.141,105.223 78.141,101.247C78.141,100.27 78.812,98.547 80.09,96.747C80.613,99.821 81.812,101.395 84.516,102.372C89.688,104.321 90.438,107.247 90.438,110.321C90.438,115.571 86.766,122.172 77.238,122.172C69.664,122.172 64.188,115.422 64.188,109.645C64.188,108.071 64.561,106.348 65.613,106.348C66.516,106.348 66.812,107.02 67.488,107.77C70.113,110.395 72.965,111.071 77.164,111.071C80.914,110.997 83.613,109.497 83.613,107.922ZM83.84,112.122C81.812,113.02 81.062,112.872 81.062,114.895C81.062,115.645 80.914,116.622 80.914,117.145C80.914,117.821 81.062,118.27 81.812,118.27C83.914,118.27 87.289,114.672 87.289,111.672C87.289,110.848 86.84,110.473 86.312,110.473C85.789,110.547 85.266,111.446 83.84,112.122ZM65.238,82.571C65.238,78.821 74.164,76.872 74.164,72.223C74.164,71.473 73.863,70.122 73.34,69.145C76.414,70.872 78.738,73.723 78.738,76.047C78.738,80.098 74.539,81.974 74.539,84.446C74.539,87.372 79.039,87.821 79.039,91.497C79.039,94.497 74.766,97.946 74.766,101.77C74.766,104.77 76.863,107.247 80.09,107.622C79.039,107.848 78.062,107.997 77.09,107.997C71.164,107.997 65.089,103.122 65.089,97.348C65.089,94.497 66.289,91.946 68.164,90.145C69.812,91.571 71.465,92.473 72.516,92.473C73.414,92.473 73.863,92.02 73.863,91.27C73.789,89.172 65.238,87.223 65.238,82.571Z" style="fill-rule:nonzero;"/>
                        <path d="M31.266,111.446C31.488,113.473 33.363,114.973 35.465,114.747C36.215,114.672 36.965,114.446 37.414,114.145C37.863,116.02 39.438,117.223 41.539,116.922C43.715,116.622 45.141,114.973 44.914,112.797C44.84,112.196 44.766,111.895 44.539,111.446C44.539,111.446 44.84,111.446 45.062,111.372C47.164,110.997 48.59,109.27 48.438,107.247C48.215,105.145 46.34,103.571 44.312,103.797C43.562,103.872 42.812,104.172 42.363,104.622C41.84,102.895 40.188,101.321 37.938,101.696C35.914,101.997 34.562,103.797 34.789,105.973C34.789,106.348 34.938,106.723 35.09,107.172C35.09,107.172 34.715,107.247 34.488,107.247C32.84,107.473 30.965,109.196 31.266,111.446ZM42.215,109.196C42.363,110.395 41.465,111.52 40.266,111.672C39.062,111.821 37.938,110.922 37.789,109.723C37.641,108.52 38.539,107.395 39.738,107.247C40.938,107.098 42.062,107.922 42.215,109.196Z" style="fill-rule:nonzero;"/>
                    </g>
                </g>
            </g>
        </g>
    </g>
</svg>