<svg xmlns="http://www.w3.org/2000/svg" xmlns:xlink="http://www.w3.org/1999/xlink" xmlns:serif="http://www.serif.com/" width="100%" height="100%" viewBox="0 0 2500 997" version="1.1" xml:space="preserve" style="fill-rule:evenodd;clip-rule:evenodd;stroke-linejoin:round;stroke-miterlimit:2;">
    <g transform="matrix(1,0,0,1,0,-751.5)">
        <rect x="0" y="0" width="2500" height="2500" style="fill:white;fill-opacity:0;"/>
        <path d="M2159.31,1706.8L2159.31,1607.6L2169.31,1616.11L2181.75,1625.81L2194.8,1635.22L2208.14,1644.01L2219.06,1650.39L2229.98,1655.53L2239.98,1660.09L2248.78,1663.41L2256.99,1665.85L2265.47,1667.68L2273.65,1668.9L2282.47,1669.2L2290.95,1668.9L2298.83,1667.38L2306.43,1664.35L2313.39,1660.12L2319.45,1654.64L2323.4,1650.42L2325.84,1646.16L2327.67,1641.62L2328.86,1636.46L2329.16,1631.6L2328.55,1627.37L2327.67,1623.11L2326.15,1619.18L2324.33,1615.54L2319.76,1608.55L2314.01,1602.19L2307.93,1596.42L2301.26,1591.29L2293.66,1586.42L2284.26,1581.29L2237.27,1557.63L2227.54,1552.47L2216.33,1545.8L2205.41,1538.51L2195.09,1530.94L2185.39,1522.75L2176.3,1513.66L2168.12,1503.66L2160.83,1493.03L2159.31,1489.71L2159.31,1370.8L2159.61,1369.58L2165.08,1360.18L2171.44,1351.38L2179.01,1343.17L2187.22,1335.6L2196.01,1328.64L2206.01,1321.94L2216.62,1315.89L2228.76,1310.41L2241.5,1305.87L2254.55,1302.23L2267.6,1299.79L2280.94,1297.96L2294.57,1297.66L2310.36,1297.66L2325.83,1299.18L2341.28,1301.31L2356.75,1304.65L2371.92,1308.61L2387.07,1313.45L2401.64,1319.22L2415.9,1325.89L2432.57,1334.37L2432.57,1439.93L2420.43,1428.1L2407.72,1416.88L2394.67,1406.27L2381.01,1396.27L2371.02,1388.98L2360.41,1382.93L2349.19,1376.84L2337.66,1371.71L2325.52,1368.06L2317.31,1366.26L2309.12,1365.35L2300.64,1365.62L2292.46,1366.85L2286.99,1368.67L2281.85,1371.11L2276.99,1374.15L2272.42,1377.49L2269.41,1381.42L2266.97,1385.99L2265.45,1393.86L2266.36,1402.34L2269.1,1410.85L2273.64,1419.04L2280.33,1426L2289.12,1433.29L2299.12,1439.95L2315.21,1448.14L2337.96,1460.28L2363.71,1474.23L2388.89,1489.71L2400.42,1497.58L2411.95,1505.76L2421.95,1514.58L2431.07,1523.38L2438.34,1531.86L2444.7,1540.04L2449.56,1548.53L2453.52,1556.42L2458.35,1568.56L2461.39,1581.3L2463.22,1594.35L2463.22,1607.37L2461.39,1620.42L2458.04,1633.15L2453.82,1644.07L2448.34,1654.68L2441.99,1664.68L2434.7,1674.41L2426.51,1683.5L2417.72,1692.3L2407.72,1700.78L2397.09,1708.68L2385.87,1715.34L2373.43,1721.7L2360.72,1726.86L2347.67,1731.11L2332.2,1735.04L2316.44,1737.78L2300.36,1739.3L2284.27,1739.91L2269.74,1739.91L2255.47,1739L2240.9,1737.17L2226.64,1734.43L2212.39,1730.82L2198.44,1726.25L2185.09,1720.8L2172.36,1714.42L2160.22,1707.46L2159.31,1706.8ZM2159.31,1082.9L2159.31,1013.73L2210.28,1013.73L2159.31,888.766L2159.31,780.183L2255.78,780.183L2383.48,1086.83L2392.27,1105.63L2402.27,1123.53L2414.41,1140.51L2427.76,1155.98L2442.03,1170.85L2458.08,1183.88L2236.99,1183.88L2231.82,1178.12L2240.01,1162.35L2243.96,1152.65L2247,1142.33L2248.19,1132.03L2248.19,1121.4L2247,1110.8L2243.96,1100.8L2236.68,1082.9L2159.31,1082.9ZM2159.31,780.17L2159.31,888.766L2155.69,880.271L2108.07,1013.73L2159.31,1013.73L2159.31,1082.88L2082.58,1082.88L2077.11,1101.69L2074.7,1112.91L2074.4,1124.44L2075.01,1135.66L2077.11,1146.88L2081.06,1157.8L2085.93,1167.8L2093.5,1183.87L1604.27,1183.87L1604.27,1157.17L1604.88,1156.57L1612.75,1146.57L1617.89,1137.46L1623.05,1125.32L1627.62,1111.07L1630.03,1096.81L1630.64,1086.19L1630.64,883.604L1629.73,867.535L1627.93,850.544L1624.58,834.176L1618.81,819.313L1610.94,805.046L1604.27,795.954L1604.27,780.183L1789.27,780.183L1780.18,793.218L1771.7,806.862L1765.34,821.427L1760.18,836.589L1757.44,852.049L1755.92,867.522L1755.34,883.591L1755.34,1115.32L1860.27,1115.32L1874.53,1113.8L1888.8,1111.08L1902.76,1107.14L1916.39,1102.27L1929.12,1095.61L1940.95,1087.41L1951.87,1078.01L1957.35,1081.65L1945.2,1175.98L1959.77,1164.76L1971.91,1153.84L1980.39,1144.75L1988.27,1135.04L1995.26,1124.43L2001.31,1113.21L2006.79,1101.99L2110.22,836.589L2112.02,830.519L2113.54,823.23L2114.76,815.344L2114.76,808.068L2113.54,801.389L2111.1,795.021L2107.48,789.262L2102.92,784.411L2097.47,780.17L2159.31,780.17ZM2159.31,1370.72L2159.31,1489.63L2155.69,1482.94L2151.74,1472.94L2148.39,1462.63L2145.95,1450.8L2144.76,1438.66L2144.76,1426.22L2145.64,1414.08L2147.77,1402.25L2151.11,1390.72L2155.04,1379.5L2159.31,1370.72ZM2159.31,1607.59L2159.31,1706.78L2148.09,1699.49L2148.09,1597.59L2157.18,1605.8L2159.31,1607.59ZM1604.27,1734.98L1604.27,1665.53L1605.18,1665.82L1615.18,1664.92L1624.88,1663.11L1634.28,1660.38L1643.08,1656.12L1651.58,1651.29L1659.16,1645.2L1666.43,1638.24L1673.13,1630.64L1679.18,1622.45L1684.66,1614.27L1688.27,1607.28L1691.92,1600L1696.48,1588.47L1700.71,1576.94L1704.06,1565.11L1707.09,1550.25L1708.9,1535.4L1709.51,1520.54L1709.23,1505.36L1707.72,1490.51L1705.28,1475.65L1700.71,1458.64L1694.65,1442.59L1687.06,1426.8L1679.48,1414.07L1670.39,1402.54L1660.39,1392.23L1648.86,1382.82L1637.33,1377.08L1625.5,1373.12L1613.67,1371L1604.27,1370.38L1604.27,1301.23L1619.72,1301.53L1637.93,1303.36L1656.11,1306.39L1673.71,1310.62L1690.99,1316.39L1706.46,1323.06L1721.02,1330.66L1735.26,1339.14L1749.22,1348.84L1761.96,1359.45L1774.39,1370.67L1785.61,1382.81L1795.02,1394.64L1803.5,1407.08L1811.1,1419.81L1817.76,1433.47L1823.24,1447.1L1827.78,1461.06L1831.42,1475.32L1833.86,1489.89L1835.38,1504.74L1835.65,1519.6L1835.04,1534.47L1833.24,1549.33L1830.5,1563.87L1826.55,1578.13L1821.71,1592.7L1815.62,1606.33L1808.96,1619.68L1801.06,1632.41L1792.58,1644.85L1786.22,1652.75L1779.53,1660.32L1768.92,1670.32L1758.31,1680.03L1746.78,1689.12L1734.95,1697.33L1722.81,1704.9L1710.08,1711.57L1697.06,1717.34L1683.71,1722.18L1673.37,1725.52L1660.05,1728.87L1646.71,1731.61L1633.36,1733.41L1619.4,1734.63L1605.75,1734.93L1604.27,1734.93L1604.27,1734.98ZM1893.61,1720.75L2086.84,1720.75L2075.01,1705.28L2068.92,1695.88L2063.79,1685.88L2059.53,1675.85L2056.19,1664.93L2053.75,1654.01L2052.53,1642.79L2052.26,1631.57L2052.26,1421.08L2052.53,1408.94L2054.05,1396.51L2056.49,1384.07L2059.83,1371.93L2064.4,1360.1L2069.85,1348.57L2076.23,1337.65L2083.5,1327.34L2091.38,1317.34L1886.94,1317.34L1897.55,1327.95L1905.43,1337.35L1912.42,1347.96L1918.16,1358.88L1922.42,1370.71L1925.15,1382.85L1926.98,1395.29L1927.57,1409.24L1927.57,1626.11L1926.98,1638.25L1925.15,1649.78L1922.42,1661.31L1918.46,1672.53L1913.33,1683.14L1907.24,1693.45L1900.89,1702.85L1890.28,1714.99L1893.61,1720.75ZM1604.27,780.183L1604.27,795.954L1601.23,792.012L1590.31,780.183L1604.27,780.183ZM1604.27,1157.19L1594.57,1166.28L1583.01,1173.87L1572.4,1179.33L1584.54,1081.66L1581.53,1078.02L1570.61,1086.52L1559.08,1094.1L1546.94,1100.78L1534.21,1106.54L1518.42,1111.09L1502.05,1114.43L1485.97,1115.34L1386.49,1115.34L1386.49,883.604L1386.79,866.925L1387.99,850.843L1390.42,836.29L1394.38,823.554L1400.44,811.116L1409.55,796.253L1420.16,780.482L1223.92,780.482L1234.84,794.437L1243.33,807.173L1248.79,817.173L1253.35,829.313L1256.98,842.957L1259.12,858.119L1259.42,870.557L1259.71,883.591L1259.42,1093.48L1259.42,1100.46L1258.51,1111.38L1255.77,1123.82L1251.23,1136.55L1245.46,1148.69L1237.58,1159.91L1228.17,1169.91L1217.25,1178.1L1221.51,1183.85L1604.3,1183.85L1604.3,1157.19L1604.27,1157.19ZM1604.27,1301.24L1604.27,1370.41L1601.53,1370.41L1589.39,1371.63L1577.56,1374.37L1567.57,1378.32L1557.86,1383.77L1549.07,1390.12L1541.17,1397.73L1529.95,1411.65L1520.55,1426.52L1512.98,1442.6L1506.89,1459.27L1502.96,1476.27L1499.93,1494.16L1498.71,1512.37L1499.01,1530.55L1501.13,1548.43L1504.45,1566.35L1509.32,1583.95L1516.28,1600.31L1524.79,1616.1L1532.07,1626.1L1539.64,1635.8L1548.43,1644.59L1556.94,1651.29L1566.35,1656.73L1576.05,1660.99L1585.75,1663.72L1595.15,1665.21L1604.27,1665.51L1604.27,1734.97L1592.13,1734.97L1578.47,1733.75L1564.82,1732.26L1551.47,1729.82L1538.12,1726.78L1524.8,1722.83L1509.94,1717.08L1495.38,1710.39L1481.11,1702.52L1467.79,1694.03L1453.83,1684.03L1441.1,1672.81L1428.96,1660.67L1418.04,1647.94L1407.73,1634.59L1399.24,1620.33L1391.64,1605.79L1385.29,1590.61L1380.42,1574.83L1376.49,1559.38L1373.76,1543.3L1372.54,1527.22L1372.24,1511.16L1373.46,1495.08L1375.9,1479.29L1379.22,1463.53L1384.08,1448.36L1390.14,1433.21L1397.74,1417.74L1406.83,1403.17L1416.83,1389.22L1428.05,1376.2L1440.19,1364.06L1452.92,1353.14L1466.27,1342.83L1480.51,1333.71L1496.3,1325.23L1512.69,1317.95L1529.97,1311.87L1547.57,1307.33L1565.14,1303.98L1583.63,1301.85L1601.55,1301.24L1604.27,1301.24ZM1001.9,1720.75L1001.9,1709.83L1011.9,1720.75L1001.9,1720.75ZM1001.9,1414.69L1005.84,1411.98L1020.41,1403.47L1035.57,1396.19L1052.86,1389.81L1070.45,1384.98L1088.35,1382.24L1106.84,1380.72L1106.54,1637.33L1106.54,1647.94L1105.02,1658.55L1102.29,1668.86L1098.05,1678.56L1092.9,1687.96L1082.59,1701.92L1071.96,1715.26L1077.72,1721.04L1282.78,1721.04L1272.16,1707.38L1261.25,1691.3L1254.55,1680.38L1249.4,1668.85L1244.54,1657.02L1240.89,1644.88L1238.17,1632.44L1237.26,1619.12L1237.26,1382.21L1251.82,1383.12L1266.38,1385.25L1280.95,1388.87L1294.9,1393.12L1310.96,1400.09L1326.43,1407.69L1341.9,1415.87L1356.75,1424.96L1343.41,1317.3L1002.5,1317.6L1001.89,1322.44L1001.89,1414.69L1001.9,1414.69ZM1001.9,1183.57L1001.9,1115.02L1067.71,1115.02L1082.28,1113.8L1098.05,1111.99L1114.12,1108.34L1127.46,1104.4L1138.99,1099.25L1149.91,1093.18L1160.52,1086.2L1170.24,1078.32L1177.21,1084.69L1164.48,1183.57L1001.9,1183.57ZM1001.9,999.774L1001.9,924.861L1093.81,924.861L1102.6,1024.65L1083.79,1017.97L1064.38,1011.9L1044.96,1007.05L1024.95,1003.11L1004.33,1000.07L1001.9,999.774ZM1001.9,843.865L1001.9,780.17L1146.88,780.17L1159.61,891.477L1148.69,882.385L1137.16,874.499L1125.04,867.522L1112.3,861.452L1095.31,854.176L1080.15,849.325L1064.38,845.979L1048.31,844.163L1032.22,843.865L1001.9,843.865ZM1001.9,780.183L1001.9,843.878L962.772,843.878L962.772,924.861L1001.9,924.861L1001.9,999.774L983.394,998.257L962.772,997.66L962.772,1115.04L1001.9,1115.04L1001.9,1183.58L802.323,1183.58L797.459,1178.12L806.862,1170.85L815.357,1162.05L822.633,1152.05L828.392,1141.43L833.243,1128.99L836.887,1116.57L839.312,1103.53L839.922,1090.19L840.519,873.008L839.922,851.167L837.795,834.786L833.852,821.142L829.001,809.612L822.322,798.691L814.436,788.678L805.332,780.196L1001.9,780.196L1001.9,780.183ZM1001.9,1322.49L1001.9,1414.69L992.187,1421.68L1001.9,1322.49ZM1001.9,1709.83L998.866,1706.19L971.863,1676.45L945.483,1645.82L881.477,1562.71L874.798,1554.23L867.82,1546.05L859.934,1539.06L851.141,1532.7L841.738,1527.23L853.268,1523.3L863.877,1518.43L874.486,1512.69L884.201,1505.7L893.306,1498.12L901.788,1489.03L909.077,1479.03L915.445,1468.11L920.594,1456.28L924.537,1443.85L926.352,1431.11L926.962,1417.76L925.445,1405.03L922.423,1392.29L917.559,1380.15L911.489,1368.32L902.086,1355.59L890.867,1344.67L878.131,1335.26L864.487,1327.99L849.922,1322.22L834.449,1318.6L818.976,1317.08L738.304,1317.08L738.304,1376.81L743.764,1377.74L753.478,1380.75L762.882,1385.31L770.767,1391.67L777.745,1398.96L783.205,1407.75L787.148,1415.93L789.586,1424.73L790.494,1433.85L789.898,1442.94L788.069,1451.73L784.126,1460.21L777.758,1469.94L769.574,1479.03L760.171,1485.7L750.457,1489.95L740.457,1492.39L738.33,1492.39L738.33,1577.6L742.571,1581.56L748.939,1587.91L755.917,1595.79L764.114,1606.4L775.942,1623.09L816.589,1681.93L823.269,1690.73L830.856,1698.91L839.338,1705.9L849.053,1711.65L859.364,1716.21L870.284,1718.95L881.205,1720.78L1001.91,1720.78L1001.91,1709.83L1001.9,1709.83ZM738.317,868.144L738.317,780.482L760.158,780.482L773.504,887.858L748.628,873.293L738.317,868.144ZM248.176,1200.26L262.43,1197.52L277.89,1193.89L291.236,1189.34L303.674,1184.19L316.099,1178.12L327.318,1171.14L337.94,1163.57L347.94,1154.76L356.733,1146.28L364.93,1137.18L372.518,1127.16L378.574,1117.16L384.035,1106.85L388.587,1095.63L391.622,1083.2L393.438,1070.15L393.438,1056.8L391.92,1044.07L388.587,1031.33L384.035,1019.2L379.794,1011.02L374.632,1002.52L368.575,994.34L360.987,985.845L352.194,977.038L342.194,968.556L330.975,960.372L319.147,952.175L293.973,936.715L268.5,922.76L248.176,912.462L248.176,1069.27L249.694,1071.39L254.545,1078.06L256.373,1082L257.891,1085.94L259.097,1090.2L259.395,1094.4L259.084,1099.25L257.878,1104.1L256.062,1108.66L253.338,1112.91L249.694,1117.16L248.176,1118.68L248.176,1200.26ZM248.176,829.001L255.751,830.519L267.89,834.462L279.421,839.312L290.639,845.382L301.249,851.75L311.56,858.728L324.906,868.728L338.251,879.648L350.689,890.569L362.816,902.397L362.816,797.148L346.137,788.354L331.883,781.688L317.02,775.916L302.157,771.065L286.995,767.123L271.833,764.088L256.062,761.662L248.176,761.053L248.176,829.001ZM738.317,780.482L738.317,868.144L737.098,867.535L725.269,861.776L712.831,856.912L700.406,852.671L689.187,849.636L677.359,847.211L665.531,845.694L653.702,845.084L653.702,1082.28L654.61,1093.49L656.426,1104.41L659.149,1115.02L662.794,1125.65L667.346,1135.96L674.635,1148.38L682.21,1160.52L690.407,1172.66L699.2,1183.88L493.85,1183.88L488.389,1178.12L495.678,1169.94L502.358,1161.44L508.116,1152.35L513.875,1142.93L516.91,1134.75L519.335,1126.26L521.462,1117.77L522.37,1108.97L522.669,1100.17L523.278,843.566L511.748,844.176L500.516,845.382L489.297,847.509L478.377,849.636L467.768,852.97L456.847,856.912L446.847,861.465L436.835,866.315L426.835,871.776L417.432,877.846L408.638,884.512L418.949,780.482L738.317,780.482ZM738.317,1317.04L738.317,1376.77L733.764,1376.18L723.155,1375.88L686.152,1375.59L686.152,1492.95L728.914,1492.95L738.317,1492.37L738.317,1577.58L734.374,1573.93L725.269,1567.88L715.27,1563.62L704.66,1560.88L693.74,1560L686.165,1560L686.165,1644.92L687.372,1656.75L689.81,1667.96L693.753,1679.18L698.902,1689.49L705.581,1699.49L713.467,1709.22L723.181,1720.75L320.353,1720.75L315.503,1714.98L322.169,1707.4L327.331,1698.9L331.585,1690.1L334.01,1680.4L335.528,1670.4L335.23,1660.4L333.712,1650.7L330.379,1641.27L326.138,1632.18L321.884,1621.87L248.176,1621.87L248.176,1550L298.214,1550L248.176,1427.45L248.176,1317.05L338.251,1317.05L467.158,1620.96L472.917,1634.62L480.504,1650.4L489.297,1665.25L499.31,1679.82L510.529,1693.48L522.669,1706.21L533.887,1694.07L540.865,1685.59L546.637,1676.47L551.487,1666.47L555.43,1656.16L557.856,1645.55L559.062,1634.63L559.062,1400.46L558.452,1387.73L556.935,1375.02L553.601,1361.97L548.751,1349.23L542.383,1337.7L534.199,1327.09L525.405,1317.09L738.317,1317.09L738.317,1317.04ZM78.324,1060.43L78.324,1162.35L90.153,1169.92L102.578,1176.9L115.314,1183.27L128.958,1188.73L142.603,1193.58L156.558,1197.23L170.825,1199.95L185.377,1201.77L199.942,1202.38L214.805,1202.38L230.564,1202.08L246.646,1200.26L248.163,1200.26L248.163,1118.67L243.611,1122.61L236.633,1127.16L229.059,1129.89L221.173,1131.7L212.38,1132.01L204.196,1131.7L195.701,1130.5L187.517,1128.68L179.022,1125.94L170.228,1122.61L160.228,1118.36L149.308,1112.9L138.387,1106.53L125.029,1097.74L111.981,1088.64L99.543,1078.93L87.416,1068.63L78.324,1060.43ZM248.176,912.423L248.176,1069.23L244.532,1064.67L238.164,1059.21L231.484,1054.07L223.91,1049.21L214.818,1044.05L167.505,1020.4L157.79,1014.94L146.558,1008.57L135.949,1001.28L125.638,993.704L115.625,985.521L106.832,976.105L98.337,966.105L91.061,955.483L86.197,945.781L81.956,935.769L78.934,925.159L76.21,913.331L74.991,901.191L74.991,889.051L76.21,876.925L78.026,865.096L81.359,853.268L85.315,842.049L90.166,832.335L95.626,822.932L101.696,814.138L109.27,805.643L117.454,798.069L126.261,791.091L136.572,784.411L146.883,778.653L159.321,773.193L171.746,768.64L184.793,765.009L198.139,762.285L211.485,760.767L224.831,760.158L240.291,760.456L248.176,761.066L248.176,829.001L247.567,828.703L239.072,828.094L230.888,828.094L222.704,829.611L217.244,831.44L212.095,833.554L207.244,836.589L202.99,840.22L199.657,844.163L197.218,848.417L195.999,856.303L196.609,864.798L199.345,873.591L204.196,881.477L210.564,888.455L219.046,895.731L229.669,902.397L245.142,910.893L248.176,912.423ZM248.176,1317.04L248.176,1427.44L244.532,1418.96L198.126,1550L248.176,1550L248.176,1621.87L172.355,1621.87L168.399,1634.31L165.974,1647.04L165.066,1660.09L165.676,1673.14L167.803,1686.19L171.447,1698.62L179.333,1720.76L42.217,1720.76L36.756,1714.99L46.471,1707.12L55.874,1698.64L64.058,1689.52L71.943,1679.52L78.623,1668.91L84.991,1657.38L88.934,1649.81L192.964,1383.8L194.793,1378.35L197.218,1370.75L198.736,1361.66L199.345,1352.57L198.126,1343.45L195.402,1334.65L191.758,1325.86L186.609,1317.07L248.176,1317.07L248.176,1317.04Z"/>
    </g>
</svg>