<?xml version="1.0" encoding="UTF-8" standalone="no"?>
<!DOCTYPE svg PUBLIC "-//W3C//DTD SVG 1.1//EN" "http://www.w3.org/Graphics/SVG/1.1/DTD/svg11.dtd">
<svg width="100%" height="100%" viewBox="0 0 2102 565" version="1.1" xmlns="http://www.w3.org/2000/svg" xmlns:xlink="http://www.w3.org/1999/xlink" xml:space="preserve" xmlns:serif="http://www.serif.com/" style="fill-rule:evenodd;clip-rule:evenodd;stroke-linejoin:round;stroke-miterlimit:2;">
    <g transform="matrix(1,0,0,1,-199,-163)">
        <path d="M2017.88,168.108C1860.59,168.108 1740.81,287.785 1740.81,445.122C1740.81,602.662 1860.59,722.353 2017.88,722.353C2073.43,722.353 2124.64,707.33 2167.25,680.897L1993.96,457.298L1993.96,598.079L1896.63,598.079L1896.63,292.463L1993.96,292.463L1993.96,433.177L2094.36,292.463L2205.76,292.463L2097.32,439.387L2237.96,616.831C2273.51,570.406 2294.99,511.371 2294.99,445.136C2294.99,287.799 2175.14,168.122 2017.88,168.122L2017.88,168.108ZM365.804,286.979C273.367,286.979 205.227,356.027 205.227,445.129C205.227,534.36 273.367,603.489 365.804,603.489C425.463,603.489 474.566,573.863 502.559,528.095L441.822,488.436C426.053,513.079 400.854,531.078 367.445,531.078C318.429,531.078 284.532,492.212 284.532,445.129C284.532,398.242 318.429,359.247 367.445,359.247C400.854,359.247 424.568,376.304 441.157,402.69L503.379,361.837C475.393,315.127 425.463,286.979 365.804,286.979ZM1048.42,286.979C955.912,286.979 887.847,356.027 887.847,445.129C887.847,534.36 955.912,603.489 1048.42,603.489C1108.18,603.489 1157.17,573.863 1185.19,528.095L1124.41,488.436C1108.59,513.079 1083.38,531.078 1050.07,531.078C1001.05,531.078 967.152,492.212 967.152,445.129C967.152,398.242 1001.05,359.247 1050.07,359.247C1083.38,359.247 1107.09,376.304 1123.76,402.69L1185.9,361.837C1158.04,315.127 1108.21,286.979 1048.49,286.979L1048.42,286.979ZM525.27,292.463L525.27,598.079L603.924,598.079L603.924,292.463L525.27,292.463ZM640.296,292.463L640.296,598.079L718.842,598.079L718.842,469.948L800.67,598.079L893.44,598.079L815.68,481.541C846.79,468.498 872.247,438.255 872.247,393.477C872.247,326.292 824.398,292.463 738.523,292.463L640.296,292.463ZM1205.69,292.456L1205.69,598.079L1391.3,598.079L1391.3,528.455L1285.48,528.455L1285.48,292.456L1205.69,292.456ZM1416.83,292.463L1416.83,598.079L1618.05,598.079L1618.05,528.455L1495.47,528.455L1495.47,476.768L1612.19,476.768L1612.19,412.533L1495.47,412.533L1495.47,361.837L1617.71,361.837L1617.71,292.463L1416.83,292.463ZM718.822,357.261L741.384,357.261C773.315,357.261 794.196,371.213 794.196,402.364C794.196,434.16 772.007,449.414 740.828,449.414L718.822,449.414L718.822,357.261ZM0,824.926L0,866.002L2499.98,866.002L2499.98,824.926L0,824.926Z" style="fill-rule:nonzero;"/>
    </g>
</svg>
