<svg xmlns="http://www.w3.org/2000/svg" alt="disney logo" width="76" height="32" viewBox="0 0 76 32" fill="none">
<path d="M65.0454 13.9773C63.7738 14.2707 60.4154 14.4337 60.4154 14.4337L60.0023 15.7597C60.0023 15.7597 61.6653 15.6184 62.8826 15.738C62.8826 15.738 63.2738 15.7054 63.3173 16.1727C63.339 16.651 63.2847 17.1509 63.2847 17.1509C63.2847 17.1509 63.2521 17.4444 62.8499 17.5205C62.3826 17.5966 59.2307 17.7378 59.2307 17.7378L58.7198 19.4551C58.7198 19.4551 58.5351 19.8464 58.9589 19.7377C59.3502 19.629 62.6543 18.9986 63.0891 19.0856C63.5455 19.1943 64.0672 19.8246 63.9151 20.3898C63.7412 21.0745 60.4371 23.1831 58.4372 23.0418C58.4372 23.0418 57.383 23.107 56.5026 21.6832C55.6548 20.3246 56.7961 17.7705 56.7961 17.7705C56.7961 17.7705 56.2852 16.5749 56.6656 16.1401C56.6656 16.1401 56.883 15.9554 57.5351 15.901L58.3503 14.2272C58.3503 14.2272 57.4264 14.2816 56.883 13.6077C56.3831 12.9556 56.3396 12.673 56.7309 12.4991C57.1439 12.2817 60.9697 11.597 63.5999 11.684C63.5999 11.684 64.5237 11.5753 65.3389 13.173C65.3389 13.173 65.7084 13.8251 65.0563 13.9773M55.1331 20.4116C54.8071 21.205 53.905 22.0419 52.8181 21.531C51.7095 21.0093 49.9596 17.4444 49.9596 17.4444C49.9596 17.4444 49.3075 16.1184 49.1771 16.1619C49.1771 16.1619 49.0358 15.901 48.9597 17.3574C48.851 18.803 48.9814 21.618 48.3837 22.0636C47.8402 22.4983 47.1881 22.3136 46.8186 21.8028C46.5142 21.2919 46.3838 20.0638 46.5577 17.9226C46.7534 15.7815 47.2425 13.499 47.862 12.7926C48.5141 12.0752 49.0358 12.5969 49.2314 12.7926C49.2314 12.7926 50.0683 13.5534 51.4813 15.8032L51.7204 16.2162C51.7204 16.2162 53.0029 18.3574 53.1333 18.3465C53.1333 18.3465 53.242 18.4552 53.3289 18.3682C53.4594 18.3356 53.4159 17.64 53.4159 17.64C53.4159 17.64 53.1768 15.325 51.9812 11.4122C51.9812 11.4122 51.8073 10.9123 51.9269 10.4341C52.0356 9.99931 52.5029 10.2167 52.5029 10.2167C52.5029 10.2167 54.3071 11.0862 55.1875 14.0207C56.057 16.9553 55.4701 19.6181 55.144 20.4116M46.286 12.8795C46.1121 13.1838 46.036 13.6077 45.2861 13.7273C45.2861 13.7273 38.004 14.2381 37.6454 14.7489C37.6454 14.7489 37.4062 15.0533 37.7975 15.1293C38.2105 15.2163 39.8626 15.4337 40.6451 15.4771C41.4929 15.4771 44.3405 15.4989 45.3839 16.7814C45.3839 16.7814 45.9817 17.39 45.9599 18.7704C45.9382 20.1833 45.6882 20.6833 45.1339 21.1941C44.5579 21.6723 39.6235 23.8895 36.4389 20.4985C36.4389 20.4985 34.9825 18.8682 36.9498 17.6292C36.9498 17.6292 38.3627 16.7597 41.982 17.7705C41.982 17.7705 43.0689 18.1617 43.0254 18.5639C42.9602 18.9986 42.1233 19.4334 40.906 19.4116C39.7322 19.379 38.8627 18.8138 39.0366 18.9117C39.1996 18.966 37.7649 18.2161 37.3193 18.7269C36.8845 19.2051 36.9932 19.4877 37.428 19.7812C38.5149 20.4116 42.7863 20.1833 44.0579 18.7595C44.0579 18.7595 44.5687 18.1835 43.7971 17.7161C43.0363 17.2814 40.819 17.0096 39.9604 16.977C39.1452 16.9336 36.0911 16.977 35.6346 16.1836C35.6346 16.1836 35.1999 15.6184 35.6781 14.0751C36.1781 12.4448 39.7322 11.8144 41.2755 11.684C41.2755 11.684 45.5143 11.5101 46.3077 12.3796C46.3077 12.3796 46.4164 12.5752 46.286 12.8687M34.2652 22.4331C33.7544 22.8135 32.6675 22.6505 32.3523 22.2158C32.048 21.8354 31.9393 20.3355 31.9936 17.977C32.0697 15.5641 32.1023 12.6078 32.6457 12.1296C33.1892 11.6622 33.5152 12.0752 33.7326 12.3904C33.95 12.7165 34.2326 13.0752 34.2761 13.8251C34.3413 14.5859 34.526 18.4987 34.526 18.4987C34.526 18.4987 34.7651 22.0636 34.2761 22.4331M35.3521 9.71672C33.8522 10.2276 32.8305 10.0645 31.961 9.68411C31.5806 10.3688 31.3524 10.5753 31.0698 10.6188C30.635 10.6623 30.2546 9.9667 30.2003 9.74933C30.1133 9.5863 29.9068 9.29284 30.1568 8.62985C29.309 7.86904 29.2438 6.84738 29.396 6.16265C29.5916 5.35836 31.0263 2.33685 35.3738 1.97818C35.3738 1.97818 37.5041 1.82602 37.8736 2.95637H37.9388C37.9388 2.95637 40.0039 2.95637 39.9604 4.80405C39.9604 6.65174 37.678 8.95591 35.3521 9.74933M37.2867 4.45625C35.9172 4.67363 33.8087 6.49958 32.7979 8.01033C34.3521 8.29292 37.0693 8.18423 38.2866 5.7279C38.2866 5.7279 38.8627 4.18454 37.2867 4.45625ZM31.2763 5.65182C30.8415 6.35828 30.8198 6.78216 31.0263 7.06475C31.5371 6.30394 32.4392 5.10838 33.7978 4.17367C32.7544 4.28236 31.8741 4.7171 31.2763 5.65182ZM68.3061 22.3571C67.3061 24.8134 66.4584 27.3023 65.9693 31.0303C65.9693 31.0303 65.8606 31.7585 65.2628 31.5194C64.665 31.302 63.6868 30.3238 63.4695 28.9435C63.2521 27.1393 64.0564 24.0961 65.6976 20.5963C65.2193 19.8355 64.8824 18.7052 65.1541 17.1183C65.1541 17.1183 65.5889 14.1838 68.5234 11.5318C68.5234 11.5318 68.8712 11.2383 69.0669 11.3362C69.306 11.4448 69.2082 12.3796 69.0125 12.8578C68.8386 13.3143 67.5344 15.575 67.5344 15.575C67.5344 15.575 66.7192 17.1183 66.9475 18.3248C68.4908 15.9554 72.0014 11.1514 74.1752 12.673C75.5555 13.6512 75.5555 16.8031 74.523 18.6291C73.7078 20.0746 71.4036 23.0635 68.3278 22.3679M72.8492 14.9772C72.0449 15.8467 70.6102 17.4987 69.4799 19.7377C70.6754 19.6073 71.8384 18.9443 72.1971 18.6073C72.7731 18.0965 74.0991 16.7162 73.8926 14.8902C73.8926 14.8902 73.7622 13.9338 72.8492 14.9772ZM24.1573 23.6396C20.3097 24.8134 16.6796 24.27 14.7015 23.7483C14.6471 24.5525 14.5602 24.8895 14.4297 25.0199C14.2776 25.1938 13.0168 25.9111 12.3212 24.8895C12.0169 24.4004 11.8647 23.52 11.7778 22.7157C7.3216 20.6941 5.25654 17.7161 5.19133 17.6074C5.08264 17.4987 4.07185 16.4445 5.08264 15.1402C6.02822 13.9664 9.15841 12.7817 11.9625 12.3143C12.0712 9.92323 12.3321 8.07554 12.669 7.26039C13.0712 6.2822 13.582 7.1517 14.0385 7.80382C14.408 8.29292 14.6363 10.3906 14.658 12.0644C16.4839 11.9774 17.5925 12.1078 19.625 12.4991C22.2987 12.9556 24.0812 14.3251 23.9399 15.8684C23.8095 17.39 22.4183 18.0204 21.8748 18.0639C21.3314 18.1074 20.4619 17.7052 20.4619 17.7052C19.8532 17.4227 20.4076 17.1618 21.114 16.8575C21.8966 16.4771 21.7227 16.0967 21.7227 16.0967C21.4401 15.2272 17.973 14.6511 14.5276 14.6511C14.5276 16.5532 14.6036 19.7051 14.658 21.5419C17.0709 21.9984 18.8751 21.9006 18.8751 21.9006C18.8751 21.9006 27.6787 21.6506 27.9287 16.0315C28.2004 10.4015 19.125 5.01056 12.4408 3.31504C5.76737 1.56517 1.98505 2.80421 1.65899 2.96724C1.30032 3.14114 1.62638 3.20635 1.62638 3.20635C1.62638 3.20635 1.98505 3.26069 2.63717 3.47807C3.2893 3.69544 2.7676 4.02151 2.7676 4.02151C1.62638 4.41278 0.354741 4.18454 0.10476 3.66284C-0.145221 3.15201 0.267791 2.68465 0.75688 1.99992C1.21337 1.29345 1.73507 1.31519 1.73507 1.31519C9.9953 -1.56502 20.0815 3.59762 20.0815 3.59762C29.5155 8.35813 31.1241 13.9555 30.9502 16.1293C30.7981 18.2704 29.972 21.8897 24.1573 23.6504M6.00648 15.8684C5.07177 16.3032 5.72389 16.9988 5.72389 16.9988C7.48463 18.8791 9.6366 20.0638 11.7017 20.8028C11.9408 17.5422 11.9191 16.3793 11.9191 14.7381C8.72366 14.9554 6.87598 15.4771 6.00648 15.8684Z" fill="black"></path>
</svg>