<svg width="1344" height="365" viewBox="0 0 1344 365" fill="none" xmlns="http://www.w3.org/2000/svg">
<path d="M957.732 135.98H974.252C974.802 147.17 985.453 158.55 1002.33 158.55C1018.85 158.55 1027.85 148.27 1027.85 137.08C1027.85 124.78 1016.65 119.27 1006 116.52L989.673 112.52C962.873 106.1 958.673 90.3104 958.673 80.0304C958.673 58.1904 978.313 44.2402 1000.33 44.2402C1022.54 44.2402 1040.33 58.3803 1040.33 80.9503H1023.81C1023.81 68.2903 1013.35 59.6603 999.763 59.6603C987.103 59.6603 975.353 67.3702 975.353 79.8502C975.353 84.2602 976.822 93.4303 993.712 97.4703L1010.22 101.47C1031.7 106.79 1044.55 118.54 1044.55 136.53C1044.55 156.17 1028.55 173.97 1002.33 173.97C975.723 173.97 957.912 155.61 957.732 135.98Z" fill="white"/>
<path d="M1138.72 122.579V172.129H1122.72V123.49C1122.72 109.18 1113.91 100.369 1101.98 100.369C1090.05 100.369 1075.74 107.159 1075.74 125.699V172.129H1059.74V39.6094H1075.74V99.4495C1080.87 88.9895 1094.82 84.5793 1104.19 84.5793C1125.51 84.5793 1138.91 98.5293 1138.72 122.579Z" fill="white"/>
<path d="M1150.83 129C1150.83 101.84 1171.21 84.5801 1195.62 84.5801C1220.03 84.5801 1240.62 101.84 1240.62 129C1240.62 156.16 1220.06 174 1195.62 174C1171.18 174 1150.83 156.17 1150.83 129ZM1224.62 129C1224.62 111.38 1211.4 99.6301 1195.62 99.6301C1180.02 99.6301 1166.98 111.38 1166.98 129C1166.98 146.81 1179.98 158.92 1195.62 158.92C1211.43 158.92 1224.62 146.81 1224.62 129Z" fill="white"/>
<path d="M1343.72 129.37C1343.72 156.53 1324.44 173.97 1300.95 173.97C1288.1 173.97 1275.95 168.83 1270.3 158.74V213.8H1254.3V86.4202H1270.3V100C1275.99 90.0902 1288.47 84.5801 1300.77 84.5801C1324.26 84.5801 1343.72 102.39 1343.72 129.37ZM1327.56 129.55C1327.56 112.48 1315.08 99.6301 1299.3 99.6301C1284.06 99.6301 1270.3 111.2 1270.3 129.55C1270.3 148.09 1285.35 158.92 1299.3 158.92C1315.08 158.92 1327.56 146.81 1327.56 129.55Z" fill="white"/>
<path d="M335.643 45.7402H429.923L421.263 72.7404H396.803V172.46H366.323V72.6703L335.663 72.7203L335.643 45.7402Z" fill="white"/>
<path d="M584.363 45.7402H680.823L672.163 72.7404H645.573V172.46H615.043V72.6703L584.383 72.7203L584.363 45.7402Z" fill="white"/>
<path d="M435.674 86.04H465.894L465.864 172.43H435.854L435.674 86.04Z" fill="white"/>
<path d="M477.885 45.3896H508.075V104.39L538.005 75.0198H574.005L536.155 111.75L578.545 172.42H545.285L516.985 130.34L507.985 139.04V172.42H477.795L477.885 45.3896Z" fill="white"/>
<path d="M797.805 45.3896H827.995V104.39L857.925 75.0198H893.925L856.075 111.75L898.464 172.42H865.205L836.915 130.34L827.915 139.04V172.42H797.725L797.805 45.3896Z" fill="white"/>
<path d="M450.775 76.1603C459.175 76.1603 465.985 69.3506 465.985 60.9503C465.985 52.5501 459.175 45.7402 450.775 45.7402C442.374 45.7402 435.564 52.5501 435.564 60.9503C435.564 69.3506 442.374 76.1603 450.775 76.1603Z" fill="white"/>
<path d="M676.955 120.72C676.955 107.707 681.862 95.1723 690.696 85.6172C699.53 76.0621 711.642 70.1891 724.615 69.1699C723.285 69.0699 721.455 69 720.085 69C706.494 69.189 693.523 74.7205 683.979 84.3984C674.435 94.0763 669.084 107.122 669.084 120.715C669.084 134.307 674.435 147.353 683.979 157.031C693.523 166.709 706.494 172.241 720.085 172.43C721.455 172.43 723.285 172.36 724.615 172.26C711.643 171.241 699.533 165.369 690.699 155.816C681.865 146.263 676.958 133.731 676.955 120.72Z" fill="#25F4EE"/>
<path d="M736.365 69C734.985 69 733.145 69.0699 731.795 69.1799C744.751 70.2175 756.84 76.0967 765.656 85.647C774.472 95.1972 779.368 107.718 779.368 120.715C779.368 133.712 774.472 146.232 765.656 155.783C756.84 165.333 744.751 171.212 731.795 172.25C733.145 172.36 734.985 172.43 736.365 172.43C749.956 172.241 762.926 166.709 772.471 157.031C782.015 147.353 787.366 134.307 787.366 120.715C787.366 107.122 782.015 94.0763 772.471 84.3984C762.926 74.7205 749.956 69.189 736.365 69Z" fill="#FE2C55"/>
<path d="M728.193 69C717.963 68.998 707.963 72.0296 699.456 77.7114C690.95 83.3933 684.319 91.4702 680.403 100.921C676.487 110.371 675.461 120.771 677.455 130.804C679.45 140.837 684.375 150.054 691.608 157.288C698.841 164.522 708.056 169.449 718.089 171.445C728.122 173.442 738.522 172.418 747.973 168.504C757.424 164.59 765.502 157.961 771.186 149.455C776.869 140.95 779.903 130.95 779.903 120.72C779.903 107.005 774.455 93.851 764.758 84.1519C755.061 74.4528 741.908 69.0027 728.193 69ZM728.193 145.86C723.221 145.86 718.36 144.385 714.226 141.623C710.092 138.861 706.869 134.934 704.967 130.341C703.064 125.747 702.566 120.692 703.536 115.815C704.506 110.939 706.901 106.459 710.416 102.943C713.932 99.4275 718.412 97.033 723.288 96.063C728.165 95.093 733.22 95.5909 737.814 97.4937C742.407 99.3964 746.334 102.619 749.096 106.753C751.859 110.887 753.333 115.748 753.333 120.72C753.333 127.388 750.684 133.782 745.97 138.497C741.255 143.211 734.861 145.86 728.193 145.86Z" fill="white"/>
<path d="M118.353 136.01V122.01C95.1845 118.833 71.6207 123.543 51.4527 135.381C31.2847 147.219 15.6853 165.497 7.16391 187.275C-1.35745 209.053 -2.30525 233.064 4.47299 255.446C11.2512 277.828 25.3614 297.279 44.5335 310.67C44.0435 310.14 43.5333 309.61 43.0833 309.07C26.6233 290.62 17.1634 266.3 17.1634 239.66C17.0763 212.567 27.6322 186.524 46.5582 167.138C65.4842 147.752 91.2665 136.573 118.353 136.01Z" fill="#25F4EE"/>
<path d="M120.813 287.67C133.215 287.592 145.113 282.752 154.046 274.149C162.98 265.547 168.267 253.84 168.813 241.45L168.923 14.81L210.063 14.88L209.963 14.38C209.083 9.6371 208.638 4.82381 208.633 0H151.933L151.843 227.07C151.56 235.108 149.241 242.942 145.104 249.839C140.966 256.736 135.146 262.47 128.188 266.503C121.229 270.536 113.361 272.737 105.32 272.899C97.2787 273.061 89.3281 271.18 82.2129 267.43C90.8629 279.43 104.923 287.67 120.813 287.67Z" fill="#25F4EE"/>
<path d="M287.434 92.3495V78.8295C272.189 78.8401 257.273 74.4021 244.514 66.0596C255.494 78.6696 270.434 88.6695 287.434 92.3495Z" fill="#25F4EE"/>
<path d="M244.493 66.0599C231.984 51.7504 225.094 33.3865 225.103 14.3799H209.523C213.523 35.9699 226.733 54.4899 244.493 66.0599Z" fill="#FE2C55"/>
<path d="M104.304 177.22C91.5878 177.316 79.4196 182.411 70.4275 191.403C61.4354 200.395 56.3409 212.563 56.2441 225.28C56.2441 243.57 67.0541 259.46 82.2441 267.43C76.3659 259.35 73.1871 249.621 73.1604 239.629C73.1337 229.638 76.2606 219.892 82.0957 211.781C87.9308 203.67 96.1763 197.607 105.658 194.456C115.14 191.304 125.375 191.225 134.904 194.23V136.39C130.246 135.737 125.548 135.403 120.844 135.39C120.024 135.39 119.204 135.39 118.384 135.45H117.994V179.14C113.561 177.779 108.94 177.131 104.304 177.22Z" fill="#FE2C55"/>
<path d="M287.433 91.4497L287.143 91.3896L287.003 135C258.735 134.973 231.193 126.048 208.283 109.49L208.223 225.28C208.132 244.274 202.859 262.884 192.973 279.104C183.087 295.323 168.962 308.538 152.121 317.323C135.28 326.108 116.36 330.132 97.4016 328.959C78.4429 327.787 60.1637 321.463 44.5332 310.67C58.7913 326.008 77.3389 336.695 97.759 341.339C118.179 345.983 139.525 344.368 159.014 336.705C178.503 329.042 195.232 315.686 207.02 298.378C218.809 281.069 225.11 260.611 225.103 239.67V124.51C248.068 141.023 275.647 149.892 303.933 149.86V93.1997C298.387 93.1981 292.856 92.6116 287.433 91.4497Z" fill="#FE2C55"/>
<path d="M208.593 225.28V110.14C231.561 126.655 259.144 135.52 287.433 135.48V91.4802C270.755 87.8856 255.694 78.976 244.513 66.0901C235.555 60.2622 227.872 52.6772 221.93 43.7941C215.988 34.9111 211.91 24.9148 209.943 14.4102H168.433L168.343 241.48C167.993 251.395 164.548 260.952 158.493 268.811C152.438 276.67 144.075 282.438 134.577 285.304C125.079 288.171 114.922 287.994 105.529 284.798C96.1371 281.601 87.9805 275.546 82.203 267.48C72.7478 262.552 65.2211 254.591 60.8295 244.875C56.4378 235.159 55.4355 224.25 57.9833 213.896C60.5311 203.542 66.4813 194.344 74.8802 187.775C83.2792 181.207 93.6406 177.648 104.303 177.67C109.071 177.687 113.808 178.428 118.353 179.87V135.43C98.2616 135.89 78.7319 142.15 62.1171 153.456C45.5023 164.762 32.5113 180.631 24.7096 199.151C16.9079 217.672 14.6282 238.053 18.1454 257.839C21.6626 277.626 30.8266 295.973 44.5331 310.67C60.1518 321.628 78.4788 328.087 97.5165 329.344C116.554 330.601 135.572 326.608 152.495 317.799C169.419 308.991 183.6 295.705 193.492 279.391C203.384 263.076 208.608 244.359 208.593 225.28Z" fill="white"/>
<path d="M352.484 362H369.968V314.012H403.634C416.282 314.012 425.768 310.106 432.092 302.48C438.602 294.668 441.764 285.182 441.764 274.022C441.764 262.862 438.602 253.376 432.092 245.564C425.768 237.752 416.282 233.846 403.634 233.846H352.484V362ZM403.448 250.028C417.398 250.028 424.466 260.816 424.466 274.022C424.466 287.228 417.212 297.83 402.518 297.83H369.968V250.028H403.448ZM533.623 362V275.138H516.883V288.158C511.489 278.672 499.027 273.278 486.379 273.278C474.103 273.278 463.687 277.37 455.131 285.74C446.575 294.11 442.297 304.898 442.297 318.476C442.297 331.868 446.575 342.842 455.131 351.212C463.687 359.582 474.103 363.86 486.379 363.86C499.027 363.86 511.117 358.28 516.883 348.608V362H533.623ZM516.697 318.29C516.697 327.218 513.907 334.286 508.327 339.494C502.747 344.702 495.865 347.306 487.867 347.306C479.869 347.306 473.173 344.516 467.779 339.122C462.385 333.728 459.595 326.66 459.595 318.29C459.595 309.92 462.199 303.038 467.593 297.83C472.987 292.436 479.869 289.832 487.867 289.832C495.493 289.832 502.189 292.436 507.955 297.458C513.721 302.48 516.697 309.548 516.697 318.29ZM568.276 330.38C568.276 305.828 576.274 289.46 592.084 289.46C596.548 289.46 600.826 290.39 604.918 292.436L607.522 276.626C604.36 274.394 599.338 273.278 592.456 273.278C580.552 273.278 572.554 280.346 568.276 294.668V275.138H551.35V362H568.276V330.38ZM637.567 242.402H620.641V275.138H605.017V289.46H620.641V362H637.567V289.46H655.981V275.138H637.567V242.402ZM681.486 315.128C681.486 298.016 692.46 289.832 706.038 289.832C717.942 289.832 725.196 298.574 725.196 312.896V362H742.122V311.78C742.122 287.228 730.218 273.278 708.642 273.278C698.04 273.278 686.508 278.486 681.486 288.158V275.138H664.56V362H681.486V315.128ZM769.925 311.78C771.971 297.458 782.759 288.53 797.453 288.53C811.589 288.53 821.819 297.458 823.865 311.78H769.925ZM840.605 318.29C840.605 304.712 836.513 293.924 828.329 285.74C820.331 277.37 809.915 273.278 797.453 273.278C784.805 273.278 774.203 277.37 765.647 285.74C757.277 293.924 752.999 304.712 752.999 318.29C752.999 331.868 757.277 342.842 765.647 351.212C774.203 359.582 784.805 363.86 797.453 363.86C814.751 363.86 830.189 355.676 837.443 340.796L830.375 338.192C827.027 336.89 824.609 335.774 822.935 335.216C818.285 343.586 808.613 348.608 798.011 348.608C783.131 348.608 771.971 339.308 769.925 324.986H840.419C840.605 323.684 840.605 321.452 840.605 318.29ZM868.442 330.38C868.442 305.828 876.44 289.46 892.25 289.46C896.714 289.46 900.992 290.39 905.084 292.436L907.688 276.626C904.526 274.394 899.504 273.278 892.622 273.278C880.718 273.278 872.72 280.346 868.442 294.668V275.138H851.516V362H868.442V330.38Z" fill="white"/>
</svg>
