<?xml version="1.0" encoding="UTF-8"?>
<svg width="448px" height="181px" viewBox="0 0 448 181" version="1.1" xmlns="http://www.w3.org/2000/svg" xmlns:xlink="http://www.w3.org/1999/xlink">
    <!-- Generator: Sketch 59.1 (86144) - https://sketch.com -->
    <title>logo</title>
    <desc>Created with Sketch.</desc>
    <g id="Page-1" stroke="none" stroke-width="1" fill="none" fill-rule="evenodd">
        <g id="logo" fill="#000000" fill-rule="nonzero">
            <path d="M423.39871,97.2325422 C423.39871,103.294299 421.473519,108.445886 417.623639,112.67193 C413.773759,116.913598 408.506907,119.026494 401.823332,119.026494 C394.63154,119.026494 389.049189,116.404336 385.076028,111.160271 C381.102616,105.916206 379.116288,98.2351912 379.116288,88.1323464 C379.116288,77.89091 381.102616,70.1942724 385.076028,65.0119436 C389.049189,59.8293627 394.63154,57.2381983 401.823332,57.2381983 C408.506907,57.2381983 413.773759,59.3206047 417.623639,63.4849131 C421.473519,67.6648445 423.39871,72.7700655 423.39871,78.847194 L423.39871,97.2325422 Z M423.39871,0 L423.39871,47.5675086 L423.02132,47.5675086 L420.557468,44.343861 C419.04816,42.3234433 416.175972,40.2720313 411.948702,38.1896252 C407.721432,36.107471 402.962798,35.0587084 397.657703,35.0587084 C386.05372,35.0587084 374.959465,39.8247575 366.381644,49.3719749 C357.804076,58.9040731 354.514746,71.8294046 354.514746,88.1323464 C354.514746,104.296697 358.457212,117.191034 366.341893,126.784617 C374.226573,136.393822 384.790973,141.190614 398.042641,141.190614 C403.463469,141.190614 408.47596,140.018378 413.08062,137.689531 C417.685531,135.360431 420.588162,133.494228 421.78952,132.09067 C422.982826,130.702483 423.899129,129.576361 424.530628,128.682066 L424.908018,128.682066 L424.908018,138.352756 L448,138.352756 L448,0 L423.39871,0 Z M318.140654,138.352756 L342.741944,138.352756 L342.741944,37.8965663 L318.140654,37.8965663 L318.140654,138.352756 Z M318.140654,0 L342.741944,0 L341.742113,23.3056122 L318.140654,23.3056122 L318.140654,0 Z M274.621314,115.710369 C270.902011,118.548479 265.31966,119.967408 257.873759,119.967408 C248.033192,119.967408 243.113035,116.558803 243.113035,109.741342 C243.113035,107.07307 244.090978,104.713228 246.046612,102.630822 C248.002247,100.548668 252.129633,98.7442014 258.443617,97.2325422 C259.558175,96.9513265 260.609332,96.6751508 261.629794,96.4009906 L261.627781,96.4027545 C261.627781,96.4027545 271.880961,93.9264954 280.203665,89.6636608 L280.203665,105.191244 C280.203665,109.355805 278.340365,112.856887 274.621314,115.710369 L274.621314,115.710369 Z M292.123146,44.7296504 C284.300106,38.2823558 274.27487,35.0587084 262.039639,35.0587084 C250.805246,35.0587084 241.727008,37.7426033 234.789324,43.1098893 C227.851641,48.4930504 223.177793,55.4029899 220.783129,63.8707026 L241.218789,72.399899 C242.858926,67.3410431 245.13031,63.3306981 248.033192,60.3539959 C250.936326,57.3926655 255.725655,55.9120001 262.416778,55.9120001 C268.091715,55.9120001 272.349678,56.9143974 275.190921,58.9350674 C278.024616,60.9554851 279.449136,63.4849131 279.449136,66.5233512 C279.449136,69.5466702 277.99367,71.891141 275.098586,73.5413923 C272.188156,75.1762727 265.004162,77.3818998 253.523208,80.1736444 C241.157149,83.1967112 232.38686,86.9911053 227.220142,91.5412032 C222.045875,96.0910489 219.458742,102.723553 219.458742,111.437959 C219.458742,119.782198 222.45396,126.830982 228.452194,132.568686 C234.44288,138.321761 243.490173,141.190614 255.602375,141.190614 C259.390614,141.190614 262.917448,140.758711 266.197469,139.864415 C269.477742,138.984987 272.064875,137.967218 273.959121,136.841348 C275.853114,135.699855 277.554891,134.435141 279.071747,133.046702 C280.581054,131.658767 281.528052,130.671741 281.905441,130.100742 C282.28258,129.545619 282.598329,129.067603 282.852438,128.682066 L283.229828,128.682066 L283.229828,138.352756 L303.857957,138.352756 L303.857957,74.6672626 C303.857957,61.1560653 299.946438,51.1766933 292.123146,44.7296504 L292.123146,44.7296504 Z M164.182702,119.026494 C157.622156,119.026494 152.386249,117.036819 148.474729,113.057468 C144.563209,109.078117 142.607323,104.173224 142.607323,98.3584119 L142.607323,77.7059529 C142.607323,72.0143617 144.563209,67.1868281 148.474729,63.2074773 C152.386249,59.2281261 157.622156,57.2381983 164.182702,57.2381983 C171.497523,57.2381983 177.42657,59.8913513 181.969337,65.1971525 C186.512608,70.5027024 188.783992,78.1532266 188.783992,88.1323464 C188.783992,98.1117184 186.481662,105.74662 181.877254,111.067792 C177.264795,116.373594 171.374243,119.026494 164.182702,119.026494 Z M168.91039,35.0587084 C165.252979,35.0587084 161.818732,35.5059822 158.600099,36.3851588 C155.381467,37.2643353 152.82528,38.2823558 150.938582,39.423597 C149.044588,40.549467 147.304318,41.8144331 145.733621,43.2023678 C144.154874,44.6059257 143.176931,45.5778328 142.799792,46.1483274 C142.422402,46.7193262 142.106904,47.1817191 141.852544,47.5675086 L141.475406,47.5675086 L141.475406,37.8965663 L118.006034,37.8965663 L118.006034,181 L142.607323,181 L142.607323,128.682066 L142.984462,128.682066 L143.747041,130.008264 C144.370741,130.903063 145.379126,131.936455 146.772953,133.139433 C148.15898,134.34241 149.799116,135.54564 151.693362,136.748617 C153.587356,137.951595 156.074606,138.984987 159.169958,139.864415 C162.25751,140.758711 165.630369,141.190614 169.287529,141.190614 C181.523011,141.190614 191.933184,136.455559 200.511004,126.985197 C209.088823,117.499464 213.385282,104.558761 213.385282,88.1323464 C213.385282,71.8294046 208.934849,58.9040731 200.041279,49.3719749 C191.147962,39.8247575 180.768482,35.0587084 168.91039,35.0587084 L168.91039,35.0587084 Z M60.5524536,80.869805 L42.5730979,80.869805 L44.0899536,54.5255026 L62.0617614,54.5255026 L60.5524536,80.869805 Z M82.5052218,13.3899178 L64.7183347,13.3899178 L63.2012274,37.8523942 L45.2218716,37.8523942 L46.7389786,13.3899178 L29.1367611,13.3899178 L27.6274533,37.8523942 L6.621934,37.8523942 L6.621934,54.5255026 L26.4879876,54.5255026 L24.9786797,80.869805 L0,80.869805 L0,97.5429133 L23.6542929,97.5429133 L22.3299061,121.989766 L40.1167932,121.989766 L41.44118,97.5429133 L59.4129882,97.5429133 L58.0886013,121.989766 L75.8832875,121.989766 L77.2076744,97.5429133 L98.7752531,97.5429133 L98.7752531,80.869805 L78.3393408,80.869805 L79.8564481,54.5255026 L105.589656,54.5255026 L105.589656,37.8523942 L80.988366,37.8523942 L82.5052218,13.3899178 Z" id="Fill-1"></path>
        </g>
    </g>
</svg>